<svg width="566" height="615" viewBox="0 0 566 615" fill="none"
  xmlns="http://www.w3.org/2000/svg">
  <g clip-path="url(#clip0_46_1832)">
    <path d="M268.209 199.365C267.774 199.365 267.422 199.009 267.422 198.576V48.6882C267.422 48.2524 267.774 47.8993 268.209 47.8993C268.643 47.8993 268.998 48.2524 268.998 48.6882V198.574C268.995 199.009 268.643 199.365 268.209 199.365Z" fill="#1C1C1C"/>
    <path class="col" style="animation-delay: .4s;" d="M326.073 145.403H293.753V185.934H326.073V145.403Z" fill="white"/>
    <path class="col" style="animation-delay: .8s;" d="M365.595 123.933H333.275V185.934H365.595V123.933Z" fill="white"/>
    <path class="col" style="animation-delay: 1.2s;" d="M405.113 114.002H372.793V185.934H405.113V114.002Z" fill="white"/>
    <path class="col" style="animation-delay: 1.6s;" d="M444.632 119.82H412.312V185.934H444.632V119.82Z" fill="white"/>
    <path class="col" style="animation-delay: 1.8s;" d="M484.151 93.9365H451.831V185.937H484.151V93.9365Z" fill="white"/>
    <path d="M326.076 186.726H293.756C293.321 186.726 292.969 186.373 292.969 185.937V145.403C292.969 144.967 293.321 144.614 293.756 144.614H326.076C326.51 144.614 326.865 144.967 326.865 145.403V185.934C326.865 186.37 326.51 186.726 326.076 186.726ZM294.542 185.142H325.286V146.192H294.542V185.142Z" fill="#1C1C1C"/>
    <path d="M365.594 186.726H333.275C332.84 186.726 332.488 186.373 332.488 185.937V123.933C332.488 123.497 332.84 123.144 333.275 123.144H365.594C366.029 123.144 366.384 123.497 366.384 123.933V185.934C366.384 186.37 366.029 186.726 365.594 186.726ZM334.061 185.142H364.805V124.725H334.061V185.142Z" fill="#1C1C1C"/>
    <path d="M405.113 186.726H372.793C372.359 186.726 372.007 186.373 372.007 185.937V113.999C372.007 113.564 372.359 113.21 372.793 113.21H405.113C405.548 113.21 405.903 113.566 405.903 113.999V185.934C405.903 186.37 405.551 186.726 405.113 186.726ZM373.58 185.142H404.324V114.791H373.58V185.142Z" fill="#1C1C1C"/>
    <path d="M444.632 186.726H412.312C411.878 186.726 411.523 186.373 411.523 185.937V119.82C411.523 119.384 411.875 119.031 412.312 119.031H444.632C445.067 119.031 445.422 119.384 445.422 119.82V185.934C445.422 186.37 445.069 186.726 444.632 186.726ZM413.102 185.142H443.845V120.609H413.102V185.142Z" fill="#1C1C1C"/>
    <path d="M484.154 186.726H451.834C451.399 186.726 451.044 186.373 451.044 185.937V93.9366C451.044 93.5007 451.397 93.1476 451.834 93.1476H484.154C484.588 93.1476 484.943 93.5035 484.943 93.9366V185.937C484.94 186.37 484.588 186.726 484.154 186.726ZM452.621 185.142H483.364V94.7255H452.621V185.142Z" fill="#1C1C1C"/>
    <path d="M511.533 192.844H260.305C259.871 192.844 259.516 192.491 259.516 192.052C259.516 191.616 259.868 191.263 260.305 191.263H511.536C511.97 191.263 512.322 191.619 512.322 192.052C512.322 192.491 511.97 192.844 511.533 192.844Z" fill="#1C1C1C"/>
    <path class="arrow" d="M478.635 2.25648L462.471 0.78894L466.914 6.6067L344.234 89.5809L336.028 78.7205C334.689 76.9495 332.202 76.5385 330.37 77.7881L243.993 136.666C242.092 137.963 241.597 140.559 242.89 142.468C243.696 143.657 245.005 144.297 246.337 144.297C247.143 144.297 247.957 144.062 248.675 143.574L331.781 86.9271L339.979 97.7765C341.313 99.5447 343.794 99.9557 345.626 98.7171L471.987 13.252L477.046 19.878L478.635 2.25648Z" fill="white"/>
    <path class="arrow" d="M246.334 145.088C244.692 145.088 243.157 144.274 242.235 142.914C240.7 140.65 241.289 137.555 243.547 136.015L329.924 77.137C332.105 75.6502 335.063 76.1357 336.655 78.246L344.41 88.5105L465.775 6.42462L461.841 1.27167C461.652 1.0234 461.627 0.684099 461.778 0.411003C461.929 0.135149 462.229 -0.0248462 462.54 0.00549777L478.704 1.47304C479.139 1.51166 479.458 1.8951 479.419 2.33095L477.829 19.9497C477.799 20.2753 477.576 20.5456 477.263 20.6366C476.952 20.7277 476.616 20.6173 476.418 20.358L471.811 14.3223L346.066 99.3709C343.887 100.844 340.936 100.353 339.351 98.2509L331.605 88.0002L249.115 144.228C248.29 144.79 247.33 145.088 246.334 145.088ZM332.708 77.857C332.053 77.857 331.393 78.0474 330.813 78.4418L244.436 137.32C242.898 138.368 242.496 140.479 243.542 142.023C244.172 142.95 245.217 143.505 246.337 143.505C247.013 143.505 247.668 143.303 248.229 142.92L331.335 86.2706C331.682 86.0333 332.152 86.1106 332.405 86.4471L340.603 97.2964C341.684 98.7281 343.695 99.0619 345.18 98.0578L471.541 12.5927C471.888 12.3582 472.355 12.4355 472.608 12.7665L476.44 17.7843L477.777 2.96817L464.185 1.7351L467.536 6.12394C467.668 6.29773 467.723 6.51565 467.687 6.73358C467.651 6.94874 467.53 7.13908 467.349 7.26046L344.671 90.2346C344.325 90.4691 343.854 90.3918 343.601 90.058L335.396 79.1949C334.738 78.3232 333.729 77.857 332.708 77.857Z" fill="#1C1C1C"/>
    <path d="M358.192 573.001L356.825 594.951L371.594 595.787L375.291 572.712L358.192 573.001Z" fill="white"/>
    <path d="M371.597 596.578C371.553 596.576 356.781 595.737 356.781 595.737C356.572 595.726 356.376 595.63 356.236 595.475C356.098 595.318 356.027 595.111 356.038 594.901L357.408 572.952C357.433 572.541 357.771 572.218 358.181 572.21L375.28 571.923C375.52 571.914 375.737 572.019 375.888 572.196C376.042 572.372 376.108 572.607 376.07 572.839L372.373 595.914C372.312 596.297 371.979 596.578 371.597 596.578ZM357.661 594.206L370.931 594.959L374.364 573.52L358.932 573.779L357.661 594.206Z" fill="#1C1C1C"/>
    <path d="M360.514 589.867C362.758 589.679 365.352 589.677 367.74 590.187C370.345 590.744 372.521 592.537 373.619 594.97C377.605 603.803 378.862 608.2 378.862 608.2L349.527 607.784L353.128 595.859C354.132 592.532 357.059 590.157 360.514 589.867Z" fill="#1C1C1C"/>
    <path d="M379.56 606.062L347.438 605.779L347.374 613.141L379.496 613.425L379.56 606.062Z" fill="white"/>
    <path d="M379.481 614.189C379.473 614.189 347.351 613.905 347.351 613.905C346.916 613.902 346.567 613.546 346.57 613.108L346.633 605.745C346.636 605.536 346.721 605.337 346.869 605.188C347.015 605.045 347.216 604.962 347.422 604.962C347.428 604.962 379.552 605.243 379.552 605.243C379.761 605.246 379.959 605.331 380.108 605.48C380.254 605.629 380.336 605.831 380.334 606.04L380.27 613.403C380.265 613.841 379.913 614.189 379.481 614.189ZM348.154 612.332L378.7 612.603L378.749 606.821L348.204 606.553L348.154 612.332Z" fill="#1C1C1C"/>
    <path d="M479.777 573.034L481.147 594.984L466.375 595.82L462.678 572.748L479.777 573.034Z" fill="white"/>
    <path d="M466.375 596.612C465.99 596.612 465.66 596.333 465.596 595.947L461.899 572.872C461.861 572.64 461.929 572.405 462.081 572.229C462.235 572.052 462.449 571.956 462.691 571.956L479.791 572.243C480.201 572.248 480.539 572.571 480.564 572.985L481.934 594.934C481.947 595.144 481.876 595.351 481.736 595.508C481.598 595.666 481.4 595.762 481.191 595.77L466.419 596.609C466.405 596.612 466.389 596.612 466.375 596.612ZM463.605 573.553L467.038 594.992L480.308 594.239L479.034 573.812L463.605 573.553Z" fill="#1C1C1C"/>
    <path d="M471.731 590.391C473.975 590.204 476.57 590.198 478.96 590.711C481.565 591.268 483.741 593.061 484.839 595.494C488.825 604.327 490.082 608.724 490.082 608.724L460.747 608.308L464.347 596.383C465.349 593.056 468.276 590.678 471.731 590.391Z" fill="#1C1C1C"/>
    <path d="M490.784 606.584L458.663 606.3L458.598 613.663L490.72 613.946L490.784 606.584Z" fill="white"/>
    <path d="M490.701 614.713C490.695 614.713 458.573 614.429 458.573 614.429C458.139 614.423 457.79 614.068 457.792 613.632L457.858 606.269C457.861 606.06 457.944 605.861 458.095 605.712C458.243 605.566 458.439 605.48 458.653 605.486L490.775 605.767C491.21 605.77 491.559 606.129 491.556 606.564L491.493 613.927C491.49 614.137 491.405 614.335 491.257 614.484C491.105 614.63 490.907 614.713 490.701 614.713ZM459.374 612.857L489.92 613.124L489.969 607.342L459.423 607.075L459.374 612.857Z" fill="#1C1C1C"/>
    <path d="M340.078 327.673L348.146 582.275L381.137 581.376L393.686 377.484L453.575 582.275H487.645L437.439 326.956L340.078 327.673Z" fill="#1C1C1C"/>
    <path d="M351.59 333.317L440.811 336.972L432.479 206.074L409.391 227.66L388.561 207.12C388.561 207.12 373.806 205.205 373.113 206.077C372.422 206.943 351.59 333.317 351.59 333.317Z" fill="white"/>
    <path d="M440.814 337.761C440.781 337.761 351.56 334.106 351.56 334.106C351.334 334.095 351.122 333.99 350.979 333.816C350.836 333.64 350.776 333.414 350.814 333.187C350.866 332.873 356.082 301.233 361.317 269.893C364.392 251.485 366.871 236.779 368.684 226.189C372.136 206.038 372.298 205.837 372.502 205.58C372.846 205.15 373.203 204.703 381.178 205.484C384.922 205.851 388.63 206.331 388.666 206.336C388.836 206.358 388.996 206.435 389.117 206.557L409.41 226.564L431.945 205.495C432.168 205.288 432.49 205.227 432.773 205.34C433.057 205.453 433.249 205.721 433.268 206.024L441.601 336.922C441.615 337.146 441.535 337.364 441.378 337.527C441.227 337.676 441.023 337.761 440.814 337.761ZM352.514 332.561L439.97 336.145L431.799 207.787L409.93 228.233C409.622 228.523 409.141 228.515 408.841 228.22L388.201 207.867C382.058 207.078 375.313 206.452 373.762 206.673C372.411 212.496 359.46 290.438 352.514 332.561Z" fill="#1C1C1C"/>
    <path d="M389.607 193.365L408.874 236.012L425.712 204.689L423.28 194.811L389.607 193.365Z" fill="white"/>
    <path d="M408.874 236.801C408.546 236.79 408.28 236.611 408.156 236.338L388.889 193.691C388.776 193.44 388.801 193.15 388.955 192.921C389.109 192.692 389.37 192.56 389.643 192.574L423.319 194.019C423.668 194.033 423.965 194.279 424.05 194.621L426.479 204.499C426.526 204.689 426.501 204.891 426.408 205.064L409.57 236.388C409.43 236.644 409.163 236.801 408.874 236.801ZM390.853 194.21L408.934 234.233L424.873 204.584L422.656 195.578L390.853 194.21Z" fill="#1C1C1C"/>
    <path d="M407.658 223.654L402.97 233.577L408.874 240.887L415.817 232.184L407.658 223.654Z" fill="#1C1C1C"/>
    <path d="M407.683 234.379L397.199 313.641L407.63 334.181L417.952 311.009L410.634 234.277L407.683 234.379Z" fill="#1C1C1C"/>
    <path d="M401.584 238.448L409.394 223.13L395.681 199.807L382.837 200.852L401.584 238.448Z" fill="white"/>
    <path d="M401.584 239.24C401.284 239.24 401.012 239.072 400.88 238.804L382.133 201.205C382.014 200.971 382.023 200.695 382.149 200.463C382.278 200.234 382.512 200.085 382.774 200.063L395.617 199.02C395.92 198.996 396.206 199.147 396.36 199.407L410.073 222.73C410.211 222.965 410.219 223.251 410.095 223.491L402.285 238.81C402.151 239.074 401.878 239.24 401.584 239.24ZM384.064 201.544L401.592 236.699L408.497 223.16L395.254 200.637L384.064 201.544Z" fill="#1C1C1C"/>
    <path d="M410.09 223.828L414.774 238.274L438.209 205.9L425.016 197.718L410.09 223.828Z" fill="white"/>
    <path d="M414.774 239.066C414.359 239.011 414.117 238.801 414.023 238.52L409.336 224.071C409.267 223.858 409.292 223.627 409.402 223.433L424.331 197.324C424.438 197.139 424.614 197.004 424.821 196.951C425.027 196.899 425.247 196.932 425.428 197.045L438.622 205.227C438.809 205.343 438.938 205.531 438.979 205.746C439.02 205.961 438.974 206.184 438.844 206.364L415.41 238.741C415.264 238.945 415.025 239.066 414.774 239.066ZM410.945 223.916L415.044 236.553L437.07 206.121L425.294 198.816L410.945 223.916Z" fill="#1C1C1C"/>
    <path d="M390.993 186.055L403.171 244.567C406.049 258.393 403.446 272.8 395.917 284.739L329.071 390.725C325.894 395.762 319.061 396.918 314.412 393.208L290.837 374.397L334.581 292.761L338.4 212.689L390.993 186.055Z" fill="#B7B7CD"/>
    <path d="M320.637 396.176C318.217 396.176 315.843 395.36 313.922 393.826L290.345 375.015C290.048 374.778 289.962 374.359 290.141 374.022L333.8 292.543L337.61 212.65C337.624 212.366 337.789 212.112 338.042 211.983L390.638 185.349C390.858 185.239 391.114 185.236 391.334 185.344C391.554 185.451 391.714 185.655 391.763 185.895L403.944 244.407C406.879 258.511 404.266 272.985 396.586 285.161L329.74 391.147C328.106 393.737 325.44 395.517 322.428 396.027C321.831 396.126 321.234 396.176 320.637 396.176ZM291.841 374.188L314.902 392.59C316.943 394.217 319.589 394.904 322.164 394.466C324.736 394.03 327.011 392.513 328.406 390.3L395.252 284.314C402.712 272.486 405.251 258.428 402.398 244.729L390.432 187.225L339.164 213.186L335.368 292.797C335.363 292.916 335.33 293.029 335.275 293.134L291.841 374.188Z" fill="#1C1C1C"/>
    <path d="M425.712 189.71L415.817 271.349C415.817 271.349 415.176 337.913 432.168 383.741C433.373 386.99 436.748 388.888 440.137 388.196L459.214 384.317L444.286 293.801L468.76 214.601L425.712 189.71Z" fill="#B7B7CD"/>
    <path d="M438.721 389.131C435.516 389.131 432.592 387.15 431.428 384.016C422.62 360.26 418.631 330.887 416.835 310.427C414.89 288.276 415.028 271.507 415.028 271.341C415.033 271.253 424.928 189.617 424.928 189.617C424.961 189.355 425.12 189.123 425.357 189.004C425.594 188.886 425.874 188.894 426.102 189.026L469.151 213.919C469.47 214.104 469.618 214.485 469.511 214.838L445.092 293.859L459.99 384.19C460.059 384.609 459.784 385.009 459.369 385.092L440.291 388.971C439.766 389.078 439.241 389.131 438.721 389.131ZM416.604 271.399C416.598 272.359 416.516 288.781 418.406 310.308C420.194 330.663 424.16 359.879 432.905 383.467C433.984 386.375 436.957 388.041 439.978 387.423L458.309 383.696L443.504 293.934C443.485 293.812 443.493 293.688 443.529 293.569L467.816 214.97L426.345 190.99L416.604 271.399Z" fill="#1C1C1C"/>
    <path d="M391.342 168.823C391.342 174.398 388.817 178.919 385.7 178.919C382.584 178.919 380.058 174.398 380.058 168.823C380.058 163.248 382.584 158.729 385.7 158.729C388.814 158.726 391.342 163.248 391.342 168.823Z" fill="white"/>
    <path d="M385.7 179.708C382.094 179.708 379.272 174.927 379.272 168.823C379.272 162.718 382.097 157.937 385.7 157.937C389.307 157.937 392.129 162.721 392.129 168.823C392.129 174.927 389.304 179.708 385.7 179.708ZM385.7 159.515C383.068 159.515 380.848 163.777 380.848 168.82C380.848 173.865 383.071 178.124 385.7 178.124C388.33 178.124 390.553 173.862 390.553 168.82C390.553 163.777 388.33 159.515 385.7 159.515Z" fill="#1C1C1C"/>
    <path d="M442.429 175.545C441.295 181.002 437.903 184.913 434.853 184.273C431.802 183.636 430.251 178.695 431.384 173.236C432.517 167.777 435.909 163.868 438.96 164.506C442.01 165.146 443.565 170.089 442.429 175.545Z" fill="white"/>
    <path d="M435.524 185.137C435.246 185.137 434.969 185.109 434.693 185.051C432.927 184.682 431.544 183.173 430.798 180.806C430.102 178.593 430.036 175.851 430.614 173.079C431.855 167.104 435.593 162.999 439.122 163.739C442.652 164.475 444.445 169.736 443.202 175.711C442.627 178.483 441.474 180.971 439.956 182.72C438.58 184.298 437.034 185.137 435.524 185.137ZM438.294 165.231C435.838 165.231 433.114 168.781 432.154 173.399C431.635 175.909 431.684 178.37 432.3 180.329C432.867 182.127 433.83 183.255 435.013 183.504C436.195 183.752 437.53 183.104 438.765 181.68C440.11 180.133 441.136 177.896 441.656 175.385C442.682 170.447 441.372 165.821 438.798 165.283C438.633 165.248 438.465 165.231 438.294 165.231Z" fill="#1C1C1C"/>
    <path d="M373.809 131.919C373.809 131.919 398.283 103.371 426.752 115.732C432.974 118.17 437.824 120.065 441.606 121.544C449.031 124.446 452.885 132.675 450.362 140.258L435.95 179.788L385.613 172.478L383.703 137.665L373.809 131.919Z" fill="#1C1C1C"/>
    <path d="M385.612 162.208C385.612 162.208 390.993 147.935 392.556 142.539C406.095 155.071 435.95 152.983 435.95 152.983L436.82 177.526C436.82 177.526 432.603 192.019 420.966 201.721C411.861 209.313 398.187 207.379 391.763 197.404C385.868 188.243 385.28 175.438 385.612 162.208Z" fill="white"/>
    <path d="M408.205 207.144C407.168 207.144 406.128 207.064 405.091 206.907C399.347 206.024 394.247 202.717 391.103 197.831C385.035 188.408 384.501 175.131 384.826 162.188C384.93 161.786 390.264 147.623 391.799 142.319C391.876 142.057 392.082 141.85 392.344 141.778C392.605 141.706 392.888 141.772 393.089 141.96C406.219 154.114 435.601 152.219 435.895 152.194C436.107 152.178 436.319 152.252 436.479 152.396C436.638 152.539 436.732 152.74 436.737 152.953L437.606 177.496C437.4 178.345 433.158 192.582 421.47 202.325C417.715 205.459 413.008 207.144 408.205 207.144ZM386.396 162.362C386.086 175.01 386.611 187.942 392.426 196.974C395.329 201.478 400.032 204.532 405.331 205.346C410.728 206.173 416.243 204.631 420.463 201.114C431.224 192.146 435.593 178.814 436.027 177.424L435.194 153.816C432.999 153.916 426.633 154.089 419.244 153.245C407.57 151.916 398.737 148.785 392.957 143.941C391.166 149.659 386.927 160.955 386.396 162.362Z" fill="#1C1C1C"/>
    <path d="M405.229 170.649C405.229 171.658 404.412 172.478 403.405 172.478C402.398 172.478 401.581 171.658 401.581 170.649C401.581 169.639 402.398 168.82 403.405 168.82C404.412 168.823 405.229 169.639 405.229 170.649Z" fill="#1C1C1C"/>
    <path d="M420.155 171.868C420.155 172.878 419.338 173.697 418.331 173.697C417.324 173.697 416.51 172.878 416.51 171.868C416.51 170.858 417.327 170.039 418.331 170.039C419.341 170.039 420.155 170.858 420.155 171.868Z" fill="#1C1C1C"/>
    <path d="M411.999 186.323C411.878 186.315 406.912 185.548 406.912 185.548C406.233 185.443 405.631 185.048 405.262 184.466C404.893 183.887 404.792 183.173 404.984 182.513C407.287 174.607 408.181 171.203 408.26 170.618C408.238 170.31 408.401 170.003 408.695 169.854C409.083 169.661 409.559 169.818 409.751 170.21C409.936 170.583 410.037 170.787 406.497 182.955C406.431 183.184 406.464 183.418 406.591 183.617C406.717 183.815 406.918 183.948 407.152 183.984L412.117 184.748C412.546 184.814 412.843 185.219 412.777 185.65C412.717 186.044 412.381 186.323 411.999 186.323Z" fill="#1C1C1C"/>
    <path d="M407.658 195.55C407.231 195.55 406.882 195.208 406.871 194.778C406.86 194.342 407.207 193.981 407.641 193.97C409.605 193.923 414.893 193.15 415.756 190.188C415.877 189.768 416.318 189.528 416.733 189.65C417.151 189.774 417.39 190.212 417.269 190.632C415.908 195.31 408.013 195.545 407.677 195.55C407.669 195.55 407.663 195.55 407.658 195.55Z" fill="#1C1C1C"/>
    <path d="M398.806 168.569C398.624 168.569 398.443 168.508 398.294 168.379C397.964 168.094 397.925 167.598 398.209 167.264C399.422 165.843 402.629 163.573 406.076 165.143C406.472 165.325 406.648 165.791 406.467 166.191C406.288 166.588 405.82 166.765 405.424 166.583C402.181 165.104 399.433 168.26 399.405 168.293C399.249 168.472 399.029 168.569 398.806 168.569Z" fill="#1C1C1C"/>
    <path d="M423.456 171.7C423.151 171.7 422.859 171.521 422.73 171.22C420.884 166.903 416.353 166.826 416.161 166.826C415.726 166.823 415.374 166.467 415.377 166.031C415.377 165.595 415.729 165.242 416.163 165.242C416.397 165.242 421.918 165.303 424.179 170.596C424.35 170.996 424.166 171.463 423.767 171.634C423.662 171.681 423.558 171.7 423.456 171.7Z" fill="#1C1C1C"/>
    <path d="M346.237 377.44C345.989 377.779 345.395 384.405 344.944 389.834C344.622 393.718 341.192 396.587 337.324 396.206L318.382 391.867L306.322 400.159C306.011 400.375 305.62 400.433 305.26 400.322C304.421 400.063 304.11 399.034 304.669 398.353L313.711 387.302C314.503 386.334 315.721 385.821 316.965 385.934L329.316 387.043C331.632 387.128 333.613 385.385 333.833 383.068L334.342 377.663L346.237 377.44Z" fill="white"/>
    <path d="M305.626 401.164C305.425 401.164 305.224 401.133 305.026 401.072C304.38 400.874 303.879 400.366 303.684 399.718C303.488 399.07 303.629 398.369 304.058 397.845L313.1 386.794C314.057 385.625 315.529 385.007 317.034 385.139L329.363 386.248C331.25 386.3 332.868 384.88 333.046 382.99L333.555 377.586C333.594 377.186 333.924 376.877 334.326 376.869L346.223 376.648C346.517 376.635 346.798 376.806 346.936 377.073C347.051 377.297 347.054 377.561 346.947 377.782C346.864 378.077 346.567 379.818 345.731 389.898C345.557 391.989 344.575 393.881 342.969 395.224C341.362 396.568 339.329 397.194 337.25 396.99C337.151 396.973 318.544 392.711 318.544 392.711L306.77 400.808C306.426 401.042 306.03 401.164 305.626 401.164ZM316.624 386.703C315.735 386.703 314.888 387.1 314.319 387.798L305.276 398.846C305.139 399.015 305.172 399.191 305.194 399.26C305.216 399.329 305.285 399.497 305.491 399.561C305.623 399.602 305.763 399.58 305.876 399.503L317.936 391.211C318.118 391.087 318.343 391.042 318.558 391.092L337.451 395.42C339.093 395.572 340.691 395.07 341.959 394.011C343.238 392.94 344.02 391.434 344.16 389.765C344.743 382.734 345.065 379.65 345.274 378.246L335.06 378.436L334.617 383.136C334.359 385.865 332.02 387.925 329.286 387.826C329.245 387.823 316.893 386.714 316.893 386.714C316.803 386.709 316.715 386.703 316.624 386.703Z" fill="#1C1C1C"/>
    <path d="M332.725 373.884V382.334L351.912 383.054V374.422L332.725 373.884Z" fill="white"/>
    <path d="M351.912 383.846C351.881 383.846 332.697 383.126 332.697 383.126C332.273 383.109 331.938 382.759 331.938 382.334V373.884C331.938 373.669 332.023 373.468 332.177 373.319C332.328 373.17 332.537 373.09 332.749 373.095L351.934 373.633C352.36 373.647 352.698 373.997 352.698 374.422V383.054C352.698 383.269 352.61 383.473 352.456 383.622C352.311 383.766 352.115 383.846 351.912 383.846ZM333.514 381.572L351.122 382.232V375.189L333.514 374.693V381.572Z" fill="#1C1C1C"/>
    <path d="M354.203 204.684L328.868 217.723C324.744 219.845 322.263 224.211 322.546 228.851L332.493 379.095L356.621 380.141L354.203 204.684Z" fill="#B7B7CD"/>
    <path d="M356.624 380.93C356.591 380.927 332.463 379.884 332.463 379.884C332.062 379.868 331.737 379.548 331.71 379.148L321.762 228.904C321.46 223.947 324.109 219.285 328.51 217.02L353.846 203.98C354.088 203.856 354.377 203.864 354.61 204.005C354.844 204.146 354.987 204.397 354.993 204.673L355.004 205.55C355.009 205.986 354.663 206.344 354.228 206.353C353.912 206.353 353.648 206.179 353.516 205.925L329.228 218.427C325.383 220.405 323.069 224.479 323.333 228.804L333.236 378.337L355.826 379.313L353.928 241.767C353.923 241.331 354.269 240.972 354.704 240.967C355.144 240.964 355.496 241.309 355.502 241.745L357.411 380.13C357.414 380.348 357.328 380.557 357.172 380.709C357.026 380.85 356.83 380.93 356.624 380.93Z" fill="#1C1C1C"/>
    <path d="M449.801 377.619C450.049 377.959 450.643 384.585 451.094 390.013C451.416 393.897 454.846 396.766 458.714 396.386L477.656 392.047L489.716 400.339C490.027 400.551 490.417 400.612 490.778 400.499C491.617 400.239 491.928 399.21 491.369 398.529L482.327 387.478C481.535 386.51 480.316 385.997 479.073 386.11L466.722 387.219C464.405 387.305 462.425 385.561 462.205 383.247L461.696 377.84L449.801 377.619Z" fill="white"/>
    <path d="M490.412 401.343C490.011 401.343 489.612 401.221 489.271 400.987L477.497 392.891L458.89 397.155C456.711 397.376 454.678 396.75 453.072 395.406C451.465 394.063 450.483 392.171 450.31 390.08C449.474 379.997 449.174 378.259 449.094 377.964C448.987 377.741 448.99 377.479 449.105 377.255C449.24 376.993 449.51 376.83 449.804 376.83C449.818 376.83 461.715 377.051 461.715 377.051C462.117 377.059 462.447 377.366 462.485 377.768L462.994 383.175C463.173 385.065 464.791 386.485 466.678 386.433L479.007 385.324C480.512 385.192 481.984 385.809 482.941 386.979L491.983 398.03C492.412 398.554 492.552 399.255 492.357 399.903C492.162 400.551 491.661 401.059 491.015 401.257C490.814 401.315 490.61 401.343 490.412 401.343ZM477.656 391.252C477.813 391.252 477.97 391.299 478.102 391.39L490.162 399.682C490.275 399.759 490.415 399.781 490.547 399.74C490.753 399.677 490.822 399.508 490.844 399.439C490.866 399.37 490.899 399.191 490.762 399.026L481.719 387.975C481.092 387.208 480.129 386.803 479.145 386.894L466.793 388.003C464.02 388.102 461.679 386.044 461.421 383.316L460.978 378.612L450.764 378.422C450.97 379.826 451.295 382.91 451.878 389.942C452.016 391.608 452.797 393.114 454.079 394.187C455.347 395.246 456.948 395.748 458.587 395.597L477.48 391.269C477.538 391.26 477.596 391.252 477.656 391.252Z" fill="#1C1C1C"/>
    <path d="M442.786 378.819L445.686 388.626L468.818 383.054L465.41 373.705L442.786 378.819Z" fill="white"/>
    <path d="M445.686 389.418C445.345 389.418 445.031 389.194 444.929 388.852L442.03 379.043C441.966 378.833 441.994 378.607 442.104 378.419C442.214 378.232 442.398 378.097 442.61 378.047L465.236 372.93C465.621 372.844 466.015 373.057 466.149 373.432L469.555 382.781C469.632 382.993 469.615 383.227 469.508 383.423C469.401 383.622 469.216 383.765 468.999 383.818L445.867 389.393C445.809 389.409 445.746 389.418 445.686 389.418ZM443.779 379.404L446.228 387.685L467.77 382.494L464.903 374.629L443.779 379.404Z" fill="#1C1C1C"/>
    <path d="M459.723 209.376L469.492 214.838C478.495 219.872 482.352 230.843 478.487 240.429L452.269 305.464L468.757 378.922L442.894 384.665L424.339 314.65C423.085 309.922 423.349 304.918 425.087 300.35L459.723 209.376Z" fill="#B7B7CD"/>
    <path d="M442.894 385.456C442.544 385.456 442.225 385.222 442.134 384.869L423.58 314.854C422.276 309.936 422.543 304.824 424.353 300.068L443.504 249.767C443.658 249.358 444.115 249.154 444.522 249.309C444.929 249.463 445.133 249.921 444.979 250.329L425.827 300.634C424.136 305.078 423.885 309.856 425.104 314.452L443.466 383.732L467.819 378.323L451.501 305.641C451.465 305.483 451.479 305.321 451.54 305.172L477.758 240.136C481.464 230.942 477.747 220.363 469.109 215.533L459.341 210.071C458.961 209.859 458.824 209.379 459.036 208.995C459.248 208.615 459.729 208.479 460.109 208.692L469.877 214.154C479.208 219.373 483.224 230.799 479.219 240.73L453.094 305.536L469.53 378.75C469.577 378.954 469.539 379.17 469.426 379.346C469.313 379.525 469.134 379.65 468.931 379.694L443.067 385.44C443.009 385.451 442.951 385.456 442.894 385.456Z" fill="#1C1C1C"/>
    <path d="M337.566 391.324C337.42 391.324 328.956 397.368 325.911 399.544C325.25 400.016 324.381 400.074 323.663 399.696C322.491 399.078 322.153 397.553 322.951 396.493L328.601 388.984L337.566 391.324Z" fill="white"/>
    <path d="M324.667 400.739C324.2 400.739 323.729 400.626 323.297 400.397C322.533 399.994 321.988 399.277 321.798 398.432C321.611 397.588 321.801 396.706 322.321 396.016L327.025 389.765C327.286 389.415 327.781 389.349 328.128 389.611C328.474 389.873 328.543 390.369 328.282 390.717L323.578 396.968C323.339 397.288 323.251 397.696 323.336 398.085C323.424 398.474 323.677 398.808 324.029 398.995C324.486 399.235 325.03 399.199 325.451 398.899C327.377 397.519 331.016 394.924 333.734 393.004C334.089 392.753 334.581 392.838 334.832 393.194C335.082 393.55 334.997 394.044 334.642 394.295C331.927 396.212 328.293 398.808 326.367 400.184C325.861 400.554 325.267 400.739 324.667 400.739Z" fill="#1C1C1C"/>
    <path d="M458.469 391.503C458.615 391.503 467.079 397.547 470.124 399.723C470.785 400.195 471.654 400.253 472.372 399.875C473.544 399.257 473.882 397.732 473.087 396.672L467.437 389.164L458.469 391.503Z" fill="white"/>
    <path d="M471.371 400.918C470.774 400.918 470.179 400.733 469.668 400.369C467.954 399.144 463.663 396.077 460.796 394.057C460.439 393.806 460.353 393.313 460.604 392.957C460.854 392.598 461.346 392.513 461.701 392.764C464.573 394.786 468.87 397.856 470.584 399.081C471.005 399.381 471.549 399.42 472.006 399.177C472.361 398.99 472.611 398.659 472.699 398.27C472.787 397.878 472.699 397.47 472.457 397.15L467.968 391.186C467.706 390.835 467.775 390.342 468.122 390.077C468.468 389.815 468.964 389.884 469.225 390.231L473.714 396.195C474.234 396.885 474.424 397.765 474.237 398.612C474.047 399.456 473.502 400.17 472.738 400.573C472.306 400.805 471.835 400.918 471.371 400.918Z" fill="#1C1C1C"/>
    <path d="M183.545 434.837H160.953V615H183.545V434.837Z" fill="#1C1C1C"/>
    <path d="M539.284 434.837H516.691V615H539.284V434.837Z" fill="#1C1C1C"/>
    <path d="M558.826 410.024H148.94V516.826H558.826V410.024Z" fill="white"/>
    <path d="M558.826 517.618H148.94C148.505 517.618 148.153 517.262 148.153 516.826V410.024C148.153 409.588 148.505 409.232 148.94 409.232H558.826C559.26 409.232 559.615 409.585 559.615 410.024V516.826C559.615 517.265 559.263 517.618 558.826 517.618ZM149.729 516.037H558.039V410.816H149.729V516.037Z" fill="#1C1C1C"/>
    <path d="M566 399.955H137.284V414.52H566V399.955Z" fill="#1C1C1C"/>
    <path d="M388.564 282.408C387.89 282.215 387.676 281.763 387.821 281.352L392.349 268.64C394.33 262.994 394.531 256.958 392.935 251.187C386.776 228.926 379.407 202.201 379.28 201.31C379.219 200.877 379.519 200.477 379.948 200.416C380.375 200.353 380.774 200.651 380.84 201.078C381.007 201.989 385.967 220.093 394.456 250.765C396.14 256.848 395.925 263.212 393.837 269.17L389.31 281.884C389.191 282.207 388.889 282.408 388.564 282.408Z" fill="#1C1C1C"/>
    <path d="M420.158 267.264C419.536 267.126 419.283 266.696 419.396 266.274L435.191 205.699C435.301 205.277 435.73 205.023 436.154 205.133C436.575 205.244 436.828 205.677 436.718 206.099L420.922 266.674C420.826 267.029 420.507 267.264 420.158 267.264Z" fill="#1C1C1C"/>
    <path d="M389.744 378.629C389.42 378.629 389.114 378.425 388.999 378.099C388.856 377.686 389.073 377.236 389.483 377.093L391.816 376.273L387.244 372.13C386.922 371.837 386.894 371.338 387.189 371.013C387.48 370.69 387.978 370.665 388.303 370.957L393.86 375.992C394.066 376.179 394.159 376.461 394.104 376.734C394.049 377.007 393.854 377.233 393.593 377.324L390.006 378.582C389.918 378.615 389.83 378.629 389.744 378.629Z" fill="white"/>
    <path d="M396.916 378.45C396.61 378.389 393.202 376.949 393.202 376.949C393.009 376.866 392.855 376.712 392.776 376.516C392.696 376.32 392.701 376.102 392.784 375.906L395.114 370.511C395.287 370.111 395.749 369.926 396.151 370.1C396.55 370.273 396.734 370.737 396.561 371.14L394.547 375.801L397.218 376.93C397.62 377.098 397.807 377.561 397.639 377.964C397.515 378.268 397.224 378.45 396.916 378.45Z" fill="white"/>
    <path d="M445.507 304.372C445.113 304.372 444.772 304.077 444.726 303.677C444.673 303.244 444.981 302.849 445.413 302.797L454.378 301.718C454.807 301.666 455.203 301.975 455.256 302.408C455.308 302.841 455 303.235 454.568 303.288L445.603 304.366C445.57 304.369 445.537 304.372 445.507 304.372Z" fill="#1C1C1C"/>
    <path d="M38.3937 559.871C37.4144 565.47 32.6334 579.638 32.6334 579.638L43.2325 583.87L52.5276 565.934L38.3937 559.871Z" fill="#1C1C1C"/>
    <path d="M117.203 330.73L179.422 332.346L180.825 357.325C181.969 377.71 167.882 395.793 147.883 399.61L117.921 401.93L51.7573 570.047L30.7793 562.676C58.3401 466.626 85.5159 364.731 117.203 330.73Z" fill="white"/>
    <path d="M51.7574 570.841C51.496 570.797 30.518 563.424 30.518 563.424C30.1246 563.286 29.9046 562.861 30.0201 562.458C32.2043 554.85 34.4215 547.077 36.5644 539.56C49.0313 495.856 61.9218 450.666 75.0847 413.403C82.1764 393.329 88.7784 377.09 95.2677 363.758C102.574 348.751 109.558 337.772 116.625 330.189C116.779 330.023 116.994 329.927 117.222 329.938L179.441 331.557C179.851 331.568 180.184 331.891 180.209 332.302L181.612 357.281C182.176 367.33 179.086 377.233 172.905 385.167C166.727 393.1 157.891 398.504 148.029 400.386C147.944 400.397 117.398 402.857 117.398 402.857L52.4891 570.334C52.3708 570.648 52.0737 570.841 51.7574 570.841ZM31.7421 562.18L51.298 569.051L116.108 401.826C116.218 401.544 116.48 401.348 116.779 401.323L147.776 398.827C167.288 395.081 181.155 377.266 180.038 357.369L178.674 333.119L117.536 331.527C104.596 345.565 91.1937 372.527 76.5674 413.93C63.421 451.148 50.5387 496.314 38.0774 539.995C36.0032 547.278 33.8575 554.8 31.7421 562.18Z" fill="#1C1C1C"/>
    <path d="M32.0777 575.906L46.2776 579.961C46.2776 579.961 50.6818 594.937 38.6908 603.276C36.1985 602.377 35.9949 602.225 35.9949 602.225L34.6443 593.155L27.5085 597.883C25.9488 598.915 24.048 599.296 22.2131 598.94L3.08092 595.224C1.722 595.083 0.715182 593.894 0.794957 592.526C0.860978 591.37 1.69174 590.402 2.81959 590.165L24.4551 585.594C26.3477 585.194 27.9569 583.961 28.8399 582.234L32.0777 575.906Z" fill="#B7B7CD"/>
    <path d="M38.6908 604.065C35.8244 603.08 35.6099 602.92 35.5273 602.86C35.3595 602.735 35.2468 602.548 35.2165 602.341L34.0501 594.498L27.9432 598.542C26.2019 599.696 24.114 600.115 22.0619 599.715L2.95994 596.005C1.19664 595.8 -0.0962679 594.261 0.00276302 592.482C0.0880396 590.973 1.17738 589.701 2.65184 589.392L24.2873 584.822C25.9544 584.468 27.3573 583.395 28.1358 581.875L31.3763 575.545C31.5469 575.208 31.932 575.042 32.2923 575.145L46.4923 579.2C46.7509 579.274 46.9572 579.475 47.0314 579.735C47.0782 579.895 48.1703 583.677 47.7632 588.557C47.2212 595.061 44.2393 600.377 39.1337 603.924C39.0072 604.018 38.8504 604.065 38.6908 604.065ZM36.713 601.682C37.0101 601.806 37.563 602.021 38.5726 602.391C43.1225 599.094 45.6863 594.416 46.1924 588.477C46.5088 584.777 45.8871 581.68 45.6285 580.595L32.4849 576.841L29.5415 582.595C28.5457 584.54 26.7521 585.914 24.6174 586.366L2.98194 590.937C2.20345 591.103 1.62577 591.776 1.58176 592.573C1.52674 593.519 2.22271 594.341 3.1635 594.438C3.23227 594.446 22.3645 598.165 22.3645 598.165C24.0068 598.482 25.682 598.151 27.0767 597.224L34.2152 592.496C34.4408 592.347 34.7241 592.322 34.9689 592.432C35.2165 592.543 35.3871 592.769 35.4283 593.036L36.713 601.682Z" fill="#1C1C1C"/>
    <path d="M69.6765 513.635C70.5595 519.251 70.6173 534.208 70.6173 534.208L82.0141 534.765L85.0098 514.777L69.6765 513.635Z" fill="#1C1C1C"/>
    <path d="M141.587 346.373L59.4874 373.57C49.2597 376.957 43.018 387.313 44.7813 397.972L65.2037 521.323L89.9476 518.625L93.1744 402.653L137.282 399.955L141.587 346.373Z" fill="white"/>
    <path d="M65.2037 522.112C64.8213 522.112 64.4912 521.836 64.4279 521.45L44.0055 398.099C43.1225 392.761 44.1706 387.269 46.9627 382.634C49.7548 378.003 54.115 374.516 59.2398 372.817L141.342 345.62C141.755 345.482 142.2 345.709 142.338 346.122C142.475 346.536 142.25 346.983 141.837 347.121L59.7349 374.317C49.8099 377.606 43.8487 387.498 45.5598 397.839L65.8611 520.454L89.1801 517.913L92.3876 402.628C92.3986 402.22 92.7205 401.886 93.1304 401.861C93.4082 401.845 121.206 400.226 134.214 399.883C134.649 399.864 135.012 400.217 135.023 400.653C135.034 401.089 134.69 401.453 134.256 401.464C122.446 401.776 98.412 403.141 93.9419 403.401L90.7344 518.65C90.7234 519.044 90.4235 519.37 90.0302 519.414L65.2862 522.112C65.2614 522.112 65.2339 522.112 65.2037 522.112Z" fill="#1C1C1C"/>
    <path d="M184.082 209.004L181.867 219.447L178.704 234.357L166.87 239.392L153.96 225.185L161.131 200.013L180.013 207.409L184.082 209.004Z" fill="white"/>
    <path d="M184.082 209.004L181.868 219.447L170.275 205.768L180.013 207.409L184.082 209.004Z" fill="#1C1C1C"/>
    <path d="M166.87 240.181C166.652 240.181 166.441 240.09 166.287 239.924L153.377 225.72C153.192 225.519 153.126 225.235 153.201 224.97L160.375 199.796C160.435 199.58 160.584 199.404 160.782 199.305C160.98 199.205 161.211 199.194 161.418 199.277L184.368 208.267C184.728 208.408 184.932 208.788 184.852 209.169L179.471 234.52C179.419 234.774 179.246 234.983 179.009 235.083L167.175 240.117C167.079 240.161 166.974 240.181 166.87 240.181ZM154.837 224.978L167.076 238.443L178.019 233.789L183.174 209.495L161.654 201.064L154.837 224.978Z" fill="#1C1C1C"/>
    <path d="M236.871 375.807C236.871 375.807 238.904 385.843 240.937 388.822C243.69 394.237 245.294 397.423 246.045 398.915C246.364 399.552 247.016 399.955 247.728 399.955C248.961 399.955 249.863 398.791 249.555 397.594L247.503 389.608L257.48 396.082C257.915 396.364 258.394 396.562 258.9 396.67L272.472 399.577C273.432 399.781 274.365 399.133 274.511 398.162C274.629 397.376 274.192 396.615 273.454 396.322L259.7 390.863L250.474 381.925L245.94 372.988L236.871 375.807Z" fill="white"/>
    <path d="M247.729 400.747C246.713 400.747 245.797 400.181 245.341 399.271C244.623 397.845 243.011 394.645 240.257 389.225C238.169 386.099 236.183 376.378 236.101 375.964C236.021 375.567 236.252 375.173 236.64 375.051L245.709 372.229C246.075 372.113 246.471 372.282 246.645 372.626L251.12 381.448L260.14 390.184L273.749 395.586C274.833 396.016 275.468 397.122 275.295 398.278C275.193 398.957 274.813 399.569 274.25 399.961C273.688 400.352 272.981 400.496 272.313 400.35L258.74 397.442C258.141 397.313 257.574 397.078 257.059 396.744L248.777 391.371L250.325 397.395C250.534 398.204 250.358 399.048 249.849 399.707C249.332 400.366 248.562 400.747 247.729 400.747ZM237.79 376.348C238.288 378.654 239.968 386.003 241.586 388.375C244.408 393.911 246.028 397.128 246.746 398.559C246.934 398.932 247.31 399.164 247.726 399.164C248.067 399.164 248.383 399.006 248.592 398.736C248.801 398.466 248.873 398.118 248.788 397.787L246.735 389.801C246.656 389.487 246.774 389.153 247.038 388.962C247.302 388.772 247.654 388.764 247.927 388.94L257.904 395.415C258.259 395.646 258.647 395.804 259.059 395.895L272.632 398.802C272.882 398.855 273.135 398.805 273.344 398.659C273.554 398.513 273.691 398.295 273.727 398.041C273.79 397.616 273.556 397.21 273.16 397.053L259.406 391.594C259.15 391.426 249.924 382.491 249.924 382.491C249.77 382.281 245.536 373.937 245.536 373.937L237.79 376.348Z" fill="#1C1C1C"/>
    <path d="M126.347 232.197L156.829 224.465L168.124 235.612L183.185 228.6L187.554 229.563C201.963 232.732 213.445 243.629 217.395 257.885L249.528 373.884L229.625 380.717L198.428 271.755L179.576 335.116C179.576 335.116 137.518 349.013 114.54 333.756C120.045 305.406 126.347 232.197 126.347 232.197Z" fill="#B7B7CD"/>
    <path d="M229.625 381.506C229.499 381.506 229.375 381.476 229.259 381.415C229.067 381.313 228.926 381.139 228.866 380.932L198.414 274.569L180.332 335.345C180.258 335.593 180.068 335.789 179.824 335.869C179.716 335.905 169.079 339.386 155.767 340.945C143.424 342.39 126.174 342.431 114.106 334.418C113.842 334.241 113.707 333.921 113.767 333.607C119.2 305.621 125.5 232.862 125.563 232.128C125.593 231.792 125.83 231.513 126.154 231.431L156.637 223.698C156.903 223.632 157.187 223.707 157.382 223.902L168.289 234.666L182.855 227.886C183.012 227.811 183.188 227.795 183.356 227.831L187.727 228.793C202.46 232.035 214.121 243.102 218.157 257.672L250.29 373.672C250.402 374.075 250.18 374.497 249.786 374.632L229.884 381.465C229.798 381.492 229.713 381.506 229.625 381.506ZM198.428 270.963C198.783 270.966 199.088 271.198 199.184 271.537L230.153 379.699L248.568 373.379L216.638 258.097C212.757 244.089 201.55 233.453 187.388 230.338L183.279 229.433L168.457 236.335C168.16 236.473 167.808 236.412 167.574 236.181L156.595 225.345L127.087 232.829C126.49 239.651 120.589 306.283 115.418 333.389C127.062 340.842 143.636 340.774 155.558 339.38C167.293 338.009 176.924 335.127 178.943 334.495L197.674 271.534C197.773 271.195 198.078 270.963 198.428 270.963Z" fill="#1C1C1C"/>
    <path d="M183.16 293.691L200.747 286.847L217.282 281.319L231.812 274.839C232.442 274.557 232.78 273.862 232.613 273.192C232.403 272.356 231.597 271.879 230.805 272.089C226.231 273.302 212.295 276.979 212.295 276.979L210.804 276.659C209.712 276.425 209.153 275.206 209.681 274.221L212.647 267.694C212.963 266.996 212.683 266.172 212.009 265.813C211.409 265.493 210.669 265.639 210.229 266.158L204.094 273.44C203.269 274.56 202.216 275.484 201.002 276.16L195.492 279.217L178.564 284.612L183.16 293.691Z" fill="white"/>
    <path d="M183.16 294.482C182.872 294.482 182.596 294.322 182.456 294.049L177.862 284.971C177.758 284.764 177.749 284.521 177.837 284.309C177.928 284.097 178.104 283.931 178.327 283.862L195.182 278.491L200.623 275.471C201.745 274.847 202.7 274.009 203.462 272.974C203.492 272.935 209.629 265.65 209.629 265.65C210.3 264.853 211.458 264.627 212.38 265.115C213.422 265.667 213.857 266.944 213.367 268.023L210.402 274.549C210.245 274.844 210.234 275.134 210.353 275.391C210.471 275.647 210.696 275.829 210.971 275.887L212.278 276.168C213.926 275.733 226.338 272.458 230.604 271.327C231.193 271.173 231.804 271.256 232.326 271.567C232.852 271.876 233.22 272.375 233.369 272.971C233.639 274.05 233.113 275.129 232.131 275.567L217.604 282.047C217.532 282.075 201.013 287.597 201.013 287.597L183.446 294.433C183.353 294.463 183.257 294.482 183.16 294.482ZM179.689 285.081L183.54 292.695L200.46 286.11C200.496 286.097 216.996 280.582 216.996 280.582L231.49 274.116C231.771 273.989 231.922 273.68 231.848 273.382C231.795 273.167 231.683 273.015 231.523 272.922C231.366 272.831 231.182 272.803 231.006 272.85C226.431 274.064 212.495 277.741 212.495 277.741C212.374 277.771 212.251 277.777 212.13 277.749L210.639 277.429C209.874 277.264 209.247 276.762 208.919 276.047C208.597 275.344 208.617 274.549 208.977 273.865L211.932 267.36C212.075 267.046 211.948 266.668 211.643 266.505C211.373 266.362 211.032 266.428 210.834 266.663L204.713 273.926C203.819 275.134 202.7 276.116 201.388 276.844L195.878 279.904C195.735 279.967 179.689 285.081 179.689 285.081Z" fill="#1C1C1C"/>
    <path d="M132.886 230.539L123.412 232.903C115.404 234.903 109.157 241.185 107.184 249.22L94.7313 299.966C91.3285 313.836 103.207 326.666 117.25 324.28C141.411 320.175 174.424 312.38 192.156 298.725L185.521 281.286L123.302 294.411L132.886 230.539Z" fill="#B7B7CD"/>
    <path d="M113.919 325.35C108.255 325.35 102.808 323.006 98.8741 318.758C94.1371 313.646 92.3023 306.551 93.9666 299.773L106.42 249.027C108.466 240.683 114.906 234.208 123.222 232.134L132.019 229.938C132.44 229.833 132.869 230.09 132.974 230.515C133.078 230.939 132.822 231.367 132.399 231.472L123.602 233.668C115.855 235.601 109.856 241.632 107.949 249.405L95.4961 300.148C93.9611 306.405 95.6556 312.959 100.029 317.679C104.401 322.396 110.788 324.573 117.118 323.494C141.235 319.398 173.56 311.737 191.207 298.449L185.023 282.19L123.464 295.178C123.211 295.23 122.95 295.158 122.76 294.979C122.573 294.802 122.482 294.543 122.52 294.287L126.52 267.645C126.586 267.211 126.988 266.916 127.417 266.98C127.846 267.046 128.143 267.449 128.08 267.879L124.251 293.396L185.358 280.505C185.738 280.425 186.118 280.635 186.258 280.996L192.893 298.438C193.017 298.764 192.912 299.133 192.637 299.346C174.839 313.05 141.892 320.89 117.385 325.053C116.224 325.254 115.066 325.35 113.919 325.35Z" fill="#1C1C1C"/>
    <path d="M153.063 218.173L168.124 235.254L156.829 247.121L143.201 226.264L153.063 218.173Z" fill="#B7B7CD"/>
    <path d="M177.271 247.121L168.124 235.254L183.006 222.49L192.15 232.197L177.271 247.121Z" fill="#B7B7CD"/>
    <path d="M156.829 247.91C156.518 247.885 156.301 247.756 156.169 247.554L142.541 226.697C142.321 226.358 142.39 225.908 142.701 225.651L152.563 217.561C152.89 217.293 153.371 217.332 153.652 217.649L168.713 234.73C168.985 235.036 168.974 235.502 168.694 235.8L157.396 247.667C157.25 247.824 157.044 247.91 156.829 247.91ZM144.249 226.427L156.945 245.855L167.057 235.232L152.978 219.263L144.249 226.427Z" fill="#1C1C1C"/>
    <path d="M177.271 247.91C176.996 247.893 176.787 247.783 176.646 247.604L167.502 235.737C167.247 235.403 167.293 234.926 167.615 234.652L182.497 221.886C182.817 221.613 183.292 221.638 183.581 221.944L192.725 231.654C193.017 231.966 193.011 232.454 192.709 232.757L177.826 247.681C177.678 247.83 177.477 247.91 177.271 247.91ZM169.208 235.367L177.348 245.927L191.055 232.184L182.951 223.58L169.208 235.367Z" fill="#1C1C1C"/>

    <g class="head">
      <path d="M212.009 187.09L207.94 176.185L211.159 154.346L155.754 169.085L160.416 205.045L183.645 211.37C193.418 214.032 203.316 207.536 204.796 197.489L205.695 191.379L209.893 190.717C211.585 190.452 212.608 188.695 212.009 187.09Z" fill="white"/>
      <path d="M188.071 212.755C186.519 212.755 184.962 212.551 183.438 212.134L167.984 207.928C167.563 207.812 167.316 207.379 167.431 206.957C167.547 206.535 167.978 206.286 168.399 206.402L183.854 210.609C188.294 211.817 193.05 211.064 196.901 208.535C200.752 206.008 203.346 201.939 204.02 197.374L204.92 191.263C204.969 190.921 205.236 190.651 205.577 190.599L209.775 189.936C210.347 189.845 210.84 189.509 211.131 189.007C211.423 188.505 211.475 187.906 211.271 187.366L207.203 176.461C207.156 176.337 207.142 176.199 207.162 176.067L210.207 155.416L156.628 169.675L160.207 197.288C160.262 197.721 159.96 198.118 159.528 198.173C159.096 198.231 158.7 197.925 158.645 197.492L154.975 169.19C154.926 168.798 155.173 168.425 155.556 168.323L210.961 153.579C211.216 153.51 211.489 153.576 211.69 153.753C211.888 153.929 211.984 154.194 211.943 154.459L208.752 176.097L212.751 186.811C213.12 187.801 213.026 188.891 212.498 189.804C211.967 190.717 211.065 191.335 210.025 191.498L206.4 192.072L205.583 197.608C204.843 202.62 201.996 207.086 197.767 209.859C194.857 211.768 191.479 212.755 188.071 212.755Z" fill="#1C1C1C"/>
      <path d="M183.367 137.262C139.482 131.094 142.448 172.365 143.113 178.42C142.145 178.312 141.158 178.257 140.156 178.257C126.886 178.257 116.13 187.917 116.13 199.834C116.13 211.751 126.886 221.409 140.156 221.409C151.314 221.409 160.694 214.579 163.398 205.318C184.624 195.763 206.636 164.87 213.585 154.52C215.926 151.03 215.687 146.393 212.955 143.201C209.354 138.995 201.302 135.094 183.367 137.262Z" fill="#1C1C1C"/>
      <path d="M203.627 177.898C203.627 178.792 202.903 179.518 202.012 179.518C201.121 179.518 200.397 178.792 200.397 177.898C200.397 177.004 201.121 176.279 202.012 176.279C202.903 176.279 203.627 177.004 203.627 177.898Z" fill="#1C1C1C"/>
      <path d="M199.503 175.81C199.371 175.81 199.236 175.777 199.113 175.705C198.733 175.487 198.604 175.005 198.818 174.627C200.496 171.68 203.599 172.058 203.731 172.078C204.163 172.136 204.466 172.533 204.408 172.966C204.35 173.396 203.954 173.703 203.528 173.645C203.429 173.634 201.327 173.41 200.188 175.41C200.042 175.667 199.776 175.81 199.503 175.81Z" fill="#1C1C1C"/>
      <path d="M201.864 202.082C198.912 202.082 197.074 200.311 196.978 200.218C196.667 199.911 196.664 199.412 196.967 199.1C197.272 198.789 197.767 198.786 198.081 199.087C198.18 199.18 200.348 201.222 203.676 200.226C204.094 200.102 204.532 200.339 204.656 200.758C204.779 201.178 204.543 201.616 204.125 201.74C203.316 201.983 202.559 202.082 201.864 202.082Z" fill="#1C1C1C"/>
      <path d="M154.496 195.23C154.353 195.23 154.21 195.192 154.081 195.109C144.384 189.054 143.014 180.88 142.959 180.535C142.893 180.105 143.188 179.7 143.617 179.633C144.043 179.567 144.448 179.862 144.516 180.29C144.527 180.367 145.859 188.113 154.912 193.765C155.28 193.997 155.393 194.485 155.165 194.855C155.019 195.098 154.76 195.23 154.496 195.23Z" fill="white"/>

    </g>


    <path d="M115.591 299.875C115.324 299.875 115.063 299.74 114.914 299.495C114.689 299.122 114.81 298.637 115.181 298.411L122.892 293.735C123.137 293.589 123.439 293.583 123.687 293.724C123.934 293.865 124.088 294.127 124.088 294.414V299.089C124.088 299.525 123.736 299.878 123.302 299.878C122.867 299.878 122.512 299.525 122.512 299.089V295.815L115.998 299.765C115.869 299.84 115.729 299.875 115.591 299.875Z" fill="#1C1C1C"/>
    <path d="M92.9955 403.442C92.7644 403.442 92.6379 403.442 84.9465 399.77C84.5531 399.583 84.3853 399.111 84.5724 398.717C84.7594 398.325 85.2298 398.157 85.6232 398.344C87.4635 399.224 90.1098 400.476 91.7521 401.238C90.9984 398.995 89.5102 394.794 88.4868 391.953C88.3383 391.542 88.5529 391.089 88.9627 390.94C89.3699 390.791 89.8238 391.004 89.9695 391.415C89.9778 391.442 90.9544 394.148 91.9006 396.841C93.9473 402.667 93.9473 402.667 93.6419 403.103C93.4989 403.315 93.2541 403.442 92.9955 403.442Z" fill="#1C1C1C"/>
    <path d="M171.351 365.865C163.269 362.274 158.947 349.154 158.768 348.597C158.634 348.183 158.862 347.736 159.275 347.601C159.69 347.466 160.133 347.695 160.268 348.109C160.309 348.238 164.554 361.123 171.678 364.354C172.074 364.533 172.25 365.002 172.072 365.399C171.94 365.691 171.651 365.865 171.351 365.865Z" fill="#1C1C1C"/>
    <path d="M168.124 249.998C168.124 250.693 167.563 251.259 166.87 251.259C166.177 251.259 165.615 250.693 165.615 249.998C165.615 249.303 166.177 248.74 166.87 248.74C167.563 248.74 168.124 249.303 168.124 249.998Z" fill="#1C1C1C"/>
    <path d="M166.152 261.145C166.152 261.841 165.591 262.406 164.895 262.406C164.201 262.406 163.64 261.843 163.64 261.145C163.64 260.45 164.201 259.888 164.895 259.888C165.591 259.888 166.152 260.45 166.152 261.145Z" fill="#1C1C1C"/>
    <path d="M164.897 272.654C164.897 273.349 164.336 273.915 163.643 273.915C162.95 273.915 162.389 273.352 162.389 272.654C162.389 271.959 162.95 271.396 163.643 271.396C164.336 271.396 164.897 271.959 164.897 272.654Z" fill="#1C1C1C"/>
    <path d="M68.8843 530.856L83.6289 530.076C83.6289 530.076 92.6352 542.812 83.9865 554.599C81.3402 554.558 81.0981 554.481 81.0981 554.481L76.8893 546.34L71.6654 553.134C70.5238 554.618 68.8485 555.595 66.9972 555.854L47.6972 558.558C46.3658 558.867 45.0289 558.069 44.663 556.751C44.3521 555.636 44.8253 554.453 45.8156 553.86L64.8048 542.5C66.4663 541.507 67.5914 539.816 67.8692 537.899L68.8843 530.856Z" fill="#B7B7CD"/>
    <path d="M47.1168 559.415C45.6478 559.415 44.3136 558.442 43.901 556.963C43.4966 555.509 44.1156 553.954 45.4085 553.178L64.3976 541.819C65.8611 540.944 66.8404 539.471 67.0852 537.783L68.103 530.74C68.1553 530.368 68.4661 530.087 68.8403 530.065L83.5848 529.287C83.8544 529.273 84.113 529.397 84.2698 529.618C84.3661 529.753 86.6218 532.978 87.8129 537.722C89.4029 544.053 88.2998 550.05 84.6192 555.065C84.4679 555.269 84.2285 555.377 83.9727 555.388C81.2109 555.344 80.955 555.264 80.8587 555.233C80.6607 555.17 80.4929 555.029 80.3966 554.845L76.7572 547.805L72.2871 553.617C71.0134 555.275 69.1704 556.348 67.1045 556.638L47.8347 559.338C47.5954 559.388 47.3561 559.415 47.1168 559.415ZM69.572 531.612L68.6449 538.012C68.3313 540.175 67.0797 542.059 65.2064 543.181L46.2172 554.538C45.5323 554.947 45.2049 555.771 45.4195 556.541C45.6753 557.454 46.5968 558.006 47.5184 557.791C47.5872 557.78 66.8871 555.073 66.8871 555.073C68.5432 554.842 70.0204 553.981 71.0409 552.652L76.2648 545.857C76.4299 545.645 76.6884 545.529 76.958 545.554C77.2249 545.579 77.4642 545.739 77.588 545.979L81.5987 553.738C81.9206 553.758 82.5148 553.785 83.5876 553.805C86.8281 549.209 87.7386 543.948 86.2999 538.164C85.4032 534.561 83.8159 531.833 83.219 530.892L69.572 531.612Z" fill="#1C1C1C"/>
  </g>
  <defs>
    <clipPath id="clip0_46_1832">
      <rect width="566" height="615" fill="white"/>
    </clipPath>
  </defs>

  <style>

  .col {
    animation: 4s ease-in-out infinite colaction;
  }
  
  @keyframes colaction {
    0% {
      fill: #fff;
    }
    50% {
      fill: #B7B7CD;
    }
    100% {
      fill: #fff;
    }
  }

  .head {
  animation: 3s ease-in-out infinite headaction;
  transform-origin: center;
}

@keyframes headaction {
  0% {
    transform: rotate(0deg) translate(0px, 0px);
  }
  50% {
    transform: rotate(4deg) translate(-2px, 8px);
  }
  100% {
    transform: rotate(0deg) translate(0px, 0px);
  }
}


  </style>

</svg>
