<svg width="131" height="66" viewBox="0 0 131 66" fill="none" xmlns="http://www.w3.org/2000/svg">
<g clip-path="url(#clip0_46_828)">
<path d="M6.79181e-07 50.1871H50.3641V65.6703H0L6.79181e-07 50.1871Z" fill="url(#paint0_linear_46_828)"/>
<path d="M6.10352e-05 50.1872V0H15.5379V50.1872H6.10352e-05Z" fill="url(#paint1_linear_46_828)"/>
<path d="M29.2004 65.6703H11.7873L36.1657 29.8501L15.2699 0H33.3795L45.2205 18.6563L57.7578 0H74.4745L29.2004 65.6703Z" fill="url(#paint2_linear_46_828)"/>
<path d="M126.982 0H113.051V65.6703H126.982V0Z" fill="url(#paint3_linear_46_828)"/>
<path d="M122.859 54.8772C122.934 54.728 123.011 54.5277 123.092 54.2768C123.167 54.0257 123.204 53.7774 123.204 53.5318C123.204 53.1423 123.132 52.8458 122.987 52.6429C122.843 52.4402 122.652 52.3386 122.417 52.3386C121.875 52.3386 121.476 52.8085 121.219 53.7482C120.957 54.6825 120.413 55.1497 119.588 55.1497C119.191 55.1497 118.856 54.9923 118.583 54.6772C118.31 54.3568 118.173 53.9191 118.173 53.3636C118.173 53.0914 118.211 52.8298 118.286 52.5789C118.361 52.3225 118.444 52.1038 118.535 51.9221C118.637 51.9595 118.738 52.0025 118.84 52.0503C118.942 52.0985 119.044 52.1412 119.146 52.1785C119.076 52.3173 119.012 52.4776 118.953 52.6589C118.889 52.8353 118.856 53.0514 118.856 53.3078C118.856 53.6122 118.915 53.8683 119.033 54.0765C119.151 54.2795 119.33 54.3808 119.572 54.3808C120.124 54.3808 120.534 53.9109 120.801 52.9714C121.069 52.0317 121.602 51.5618 122.401 51.5618C122.829 51.5618 123.183 51.7326 123.462 52.0743C123.735 52.4107 123.872 52.894 123.872 53.524C123.872 53.7535 123.828 54.0391 123.743 54.3808C123.657 54.7225 123.566 54.9468 123.469 55.0536C123.368 55.0268 123.266 55.0002 123.164 54.9736C123.062 54.9415 122.961 54.9094 122.859 54.8772Z" fill="white"/>
<path d="M121.058 49.9442C120.239 49.9442 119.558 49.736 119.017 49.3195C118.471 48.8978 118.189 48.2918 118.173 47.5016C118.173 46.6579 118.455 46.0414 119.017 45.6515C119.574 45.2617 120.236 45.0669 121.002 45.0669C121.801 45.0669 122.478 45.2777 123.036 45.6997C123.588 46.1214 123.869 46.73 123.879 47.5255C123.879 48.3637 123.601 48.9778 123.044 49.3674C122.486 49.752 121.825 49.9442 121.058 49.9442ZM121.05 49.1434C121.661 49.1434 122.176 49.0152 122.593 48.7588C123.011 48.4971 123.22 48.0889 123.22 47.5337C123.22 47.0264 123.025 46.6261 122.634 46.3323C122.243 46.0332 121.699 45.8837 121.002 45.8837C120.397 45.8837 119.885 46.0119 119.467 46.2683C119.049 46.5244 118.84 46.9304 118.84 47.4855C118.84 47.982 119.046 48.3824 119.459 48.6867C119.866 48.9913 120.397 49.1434 121.05 49.1434Z" fill="white"/>
<path d="M121.316 40.764V42.3098H123.767V43.0784H118.302V40.1394L118.897 40.0272V42.3098H120.729V40.8601L121.316 40.764Z" fill="white"/>
<path d="M118.913 34.8521V36.646H123.767V37.4228H118.913V39.1126H118.302V34.956C118.404 34.9402 118.505 34.9242 118.607 34.9081C118.709 34.8921 118.811 34.8734 118.913 34.8521Z" fill="white"/>
<path d="M122.802 33.4757C122.802 33.3422 122.851 33.2301 122.947 33.1393C123.038 33.0487 123.151 33.0032 123.285 33.0032C123.419 33.0032 123.534 33.0487 123.63 33.1393C123.721 33.2301 123.767 33.3422 123.767 33.4757C123.767 33.6147 123.721 33.7321 123.63 33.8282C123.534 33.919 123.419 33.9643 123.285 33.9643C123.151 33.9643 123.038 33.919 122.947 33.8282C122.851 33.7321 122.802 33.6147 122.802 33.4757Z" fill="white"/>
<path d="M118.913 27.842V29.636H123.767V30.4128H118.913V32.1025H118.302V27.9462C118.404 27.9301 118.505 27.9141 118.607 27.8981C118.709 27.8821 118.811 27.8634 118.913 27.842Z" fill="white"/>
<path d="M123.767 26.3057H118.302V23.2384C118.404 23.217 118.503 23.201 118.599 23.1903C118.696 23.1743 118.795 23.1556 118.897 23.1342V25.5368H120.689V24.0072C120.79 23.9912 120.892 23.9752 120.994 23.9591C121.091 23.9431 121.187 23.9244 121.283 23.9031V25.5368H123.164V22.9501L123.767 22.8459V26.3057Z" fill="white"/>
<path d="M119.073 17.8264C119.004 18.024 118.95 18.2028 118.913 18.363C118.87 18.5179 118.848 18.7261 118.848 18.9877C118.848 19.4842 119.052 19.8766 119.459 20.1649C119.866 20.4533 120.4 20.5974 121.058 20.5974C121.648 20.5974 122.157 20.4746 122.586 20.229C123.009 19.9834 123.22 19.591 123.22 19.0517C123.22 18.7901 123.199 18.5632 123.156 18.371C123.108 18.1788 123.049 18.008 122.979 17.8585L123.558 17.5621C123.649 17.7437 123.724 17.9759 123.783 18.2589C123.847 18.5365 123.879 18.7901 123.879 19.0197C123.879 19.8579 123.603 20.4639 123.052 20.8377C122.494 21.2114 121.833 21.3983 121.067 21.3983C120.247 21.3983 119.564 21.1927 119.017 20.7816C118.465 20.3705 118.189 19.7672 118.189 18.9717C118.189 18.8115 118.216 18.5899 118.27 18.3069C118.318 18.024 118.401 17.7837 118.519 17.5862L119.073 17.8264Z" fill="white"/>
<path d="M123.767 12.4871H121.332V14.9057H123.767V15.6745H118.302L118.262 14.9057H120.713V12.4871H118.302V11.7183H123.767V12.4871Z" fill="white"/>
<path d="M63.7586 0V65.6703L77.6892 65.9372V20.2884L89.4765 39.242L97.2454 26.4283L80.3681 0H63.7586Z" fill="url(#paint4_linear_46_828)"/>
<path d="M97.2454 51.2548L89.4765 39.242L113.051 0V22.424L97.2454 51.2548Z" fill="url(#paint5_linear_46_828)"/>
<path d="M62.4193 65.9372L45.542 41.9115L53.3109 30.4327L77.5649 65.9372H62.4193Z" fill="url(#paint6_linear_46_828)"/>
</g>
<defs>
<linearGradient id="paint0_linear_46_828" x1="56.6952" y1="57.9938" x2="0.0706315" y2="55.961" gradientUnits="userSpaceOnUse">
<stop offset="0.026129" stop-color="#2D2B6C" stop-opacity="0"/>
<stop offset="0.696812" stop-color="#2D2B6C"/>
</linearGradient>
<linearGradient id="paint1_linear_46_828" x1="7.73122" y1="-7.38298" x2="5.78513" y2="50.1199" gradientUnits="userSpaceOnUse">
<stop offset="0.026129" stop-color="#2D2B6C" stop-opacity="0"/>
<stop offset="0.802957" stop-color="#2D2B6C"/>
</linearGradient>
<linearGradient id="paint2_linear_46_828" x1="45.3131" y1="-8.34599" x2="42.9181" y2="65.6635" gradientUnits="userSpaceOnUse">
<stop offset="0.026129" stop-color="#2D2B6C" stop-opacity="0"/>
<stop offset="0.80958" stop-color="#2D2B6C"/>
</linearGradient>
<linearGradient id="paint3_linear_46_828" x1="120.048" y1="-6.848" x2="116.211" y2="65.4685" gradientUnits="userSpaceOnUse">
<stop offset="0.026129" stop-color="#2D2B6C" stop-opacity="0"/>
<stop offset="0.46875" stop-color="#2D2B6C"/>
</linearGradient>
<linearGradient id="paint4_linear_46_828" x1="80.5328" y1="-8.667" x2="79.1598" y2="65.9126" gradientUnits="userSpaceOnUse">
<stop offset="0.026129" stop-color="#2D2B6C" stop-opacity="0"/>
<stop offset="0.64834" stop-color="#2D2B6C"/>
</linearGradient>
<linearGradient id="paint5_linear_46_828" x1="110.169" y1="-5.67101" x2="109.861" y2="51.2528" gradientUnits="userSpaceOnUse">
<stop stop-color="#2D2B6C" stop-opacity="0"/>
<stop offset="0.77031" stop-color="#2D2B6C"/>
</linearGradient>
<linearGradient id="paint6_linear_46_828" x1="61.6345" y1="22.577" x2="61.3679" y2="65.9361" gradientUnits="userSpaceOnUse">
<stop offset="0.026129" stop-color="#2D2B6C" stop-opacity="0"/>
<stop offset="0.804008" stop-color="#2D2B6C"/>
</linearGradient>
<clipPath id="clip0_46_828">
<rect width="131" height="66" fill="white"/>
</clipPath>
</defs>
</svg>
