<svg width="108" height="108" viewBox="0 0 108 108" fill="none" xmlns="http://www.w3.org/2000/svg">
<g clip-path="url(#clip0_46_2030)">
<path d="M64.0192 20.0813C64.1569 19.2088 64.2269 18.327 64.2285 17.4437C64.2504 13.4443 62.8895 9.56019 60.3763 6.44898C57.8631 3.33777 54.352 1.19062 50.4374 0.371053C46.5228 -0.448517 42.4453 0.10985 38.8951 1.95162C35.345 3.79339 32.5403 6.8054 30.956 10.4777C29.78 10.0587 28.5409 9.84408 27.2925 9.8432C24.3492 9.85336 21.5215 10.9898 19.3898 13.0192C17.2581 15.0486 15.9841 17.8171 15.8293 20.7563C12.4865 22.0773 9.70783 24.5206 7.97006 27.6668C6.23229 30.8131 5.64383 34.4662 6.30569 37.999C6.96754 41.5318 8.83844 44.7241 11.5973 47.028C14.3561 49.3319 17.8308 50.6036 21.425 50.625H60.575C64.3617 50.5988 68.0073 49.1852 70.822 46.652C73.6366 44.1188 75.4249 40.6416 75.8484 36.8786C76.2719 33.1156 75.3012 29.3279 73.12 26.2325C70.9388 23.137 67.6986 20.9485 64.0125 20.0813H64.0192Z" fill="#E6ECFF"/>
<path d="M74.75 57.375H7.25C3.52208 57.375 0.5 60.3971 0.5 64.125V101.25C0.5 104.978 3.52208 108 7.25 108H74.75C78.4779 108 81.5 104.978 81.5 101.25V64.125C81.5 60.3971 78.4779 57.375 74.75 57.375Z" fill="#E6ECFF"/>
<path d="M74.75 79.3125C75.1976 79.3125 75.6268 79.1347 75.9432 78.8182C76.2597 78.5018 76.4375 78.0726 76.4375 77.625V64.125C76.4375 63.6774 76.2597 63.2482 75.9432 62.9318C75.6268 62.6153 75.1976 62.4375 74.75 62.4375H7.25C6.80245 62.4375 6.37323 62.6153 6.05676 62.9318C5.74029 63.2482 5.5625 63.6774 5.5625 64.125V101.25C5.5625 101.698 5.74029 102.127 6.05676 102.443C6.37323 102.76 6.80245 102.937 7.25 102.937H74.75C75.1976 102.937 75.6268 102.76 75.9432 102.443C76.2597 102.127 76.4375 101.698 76.4375 101.25V87.75C76.4375 87.3024 76.2597 86.8732 75.9432 86.5568C75.6268 86.2403 75.1976 86.0625 74.75 86.0625C73.8549 86.0625 72.9964 85.7069 72.3635 85.074C71.7306 84.4411 71.375 83.5826 71.375 82.6875C71.375 81.7924 71.7306 80.9339 72.3635 80.301C72.9964 79.6681 73.8549 79.3125 74.75 79.3125Z" fill="#D0DBF7"/>
<path d="M74.75 84.375C75.682 84.375 76.4375 83.6195 76.4375 82.6875C76.4375 81.7555 75.682 81 74.75 81C73.818 81 73.0625 81.7555 73.0625 82.6875C73.0625 83.6195 73.818 84.375 74.75 84.375Z" fill="#D0DBF7"/>
<path d="M52.8125 30.375C52.3649 30.375 51.9357 30.5528 51.6193 30.8693C51.3028 31.1857 51.125 31.6149 51.125 32.0625V36.0129L42.6875 39.6292V23.625C42.6875 23.1774 42.5097 22.7482 42.1932 22.4318C41.8768 22.1153 41.4476 21.9375 41 21.9375C40.5524 21.9375 40.1232 22.1153 39.8068 22.4318C39.4903 22.7482 39.3125 23.1774 39.3125 23.625V39.6292L30.875 36.0129V32.0625C30.875 31.6149 30.6972 31.1857 30.3807 30.8693C30.0643 30.5528 29.6351 30.375 29.1875 30.375C28.7399 30.375 28.3107 30.5528 27.9943 30.8693C27.6778 31.1857 27.5 31.6149 27.5 32.0625V36.0129C27.5001 36.6733 27.6939 37.3192 28.0574 37.8705C28.421 38.4218 28.9383 38.8544 29.5452 39.1146L39.3125 43.2996V65.8125C39.3125 66.26 39.4903 66.6893 39.8068 67.0057C40.1232 67.3222 40.5524 67.5 41 67.5C41.4476 67.5 41.8768 67.3222 42.1932 67.0057C42.5097 66.6893 42.6875 66.26 42.6875 65.8125V43.2996L52.4547 39.1146C53.0617 38.8544 53.579 38.4218 53.9426 37.8705C54.3061 37.3192 54.4999 36.6733 54.5 36.0129V32.0625C54.5 31.6149 54.3222 31.1857 54.0057 30.8693C53.6893 30.5528 53.2601 30.375 52.8125 30.375V30.375Z" fill="#8581D8"/>
<path d="M45.8937 76.8707L42.5187 70.1207C42.3779 69.8389 42.161 69.6021 41.8926 69.4372C41.6242 69.2723 41.315 69.1858 41 69.1875H25.8125C25.3649 69.1875 24.9357 69.3653 24.6193 69.6818C24.3028 69.9982 24.125 70.4275 24.125 70.875V77.625C24.125 78.0726 24.3028 78.5018 24.6193 78.8183C24.9357 79.1347 25.3649 79.3125 25.8125 79.3125H44.375C44.6634 79.3141 44.9474 79.2417 45.1998 79.1023C45.4523 78.963 45.6648 78.7612 45.8172 78.5163C45.9695 78.2714 46.0565 77.9916 46.0699 77.7035C46.0833 77.4154 46.0227 77.1287 45.8937 76.8707Z" fill="#8581D8"/>
<path d="M56.1875 75.9375H24.125V94.5C24.125 94.9476 24.3028 95.3768 24.6193 95.6932C24.9357 96.0097 25.3649 96.1875 25.8125 96.1875H56.1875C56.6351 96.1875 57.0643 96.0097 57.3807 95.6932C57.6972 95.3768 57.875 94.9476 57.875 94.5V77.625C57.875 77.1774 57.6972 76.7482 57.3807 76.4318C57.0643 76.1153 56.6351 75.9375 56.1875 75.9375Z" fill="#4F4C9F"/>
<path class="dote2" d="M41 25.3125C43.7959 25.3125 46.0625 23.0459 46.0625 20.25C46.0625 17.4541 43.7959 15.1875 41 15.1875C38.2041 15.1875 35.9375 17.4541 35.9375 20.25C35.9375 23.0459 38.2041 25.3125 41 25.3125Z" fill="#4F4C9F"/>
<path class="dote3" d="M52.8125 33.75C55.6084 33.75 57.875 31.4834 57.875 28.6875C57.875 25.8916 55.6084 23.625 52.8125 23.625C50.0166 23.625 47.75 25.8916 47.75 28.6875C47.75 31.4834 50.0166 33.75 52.8125 33.75Z" fill="#4F4C9F"/>
<path class="dote1" d="M29.1875 33.75C31.9834 33.75 34.25 31.4834 34.25 28.6875C34.25 25.8916 31.9834 23.625 29.1875 23.625C26.3916 23.625 24.125 25.8916 24.125 28.6875C24.125 31.4834 26.3916 33.75 29.1875 33.75Z" fill="#4F4C9F"/>
</g>
<defs>
<clipPath id="clip0_46_2030">
<rect width="108" height="108" fill="white"/>
</clipPath>
</defs>


<style>

  .dote1{
    animation: 2s ease-in-out infinite blinkdots;
  }
  .dote2{
    animation: 2s ease-in-out .3s infinite blinkdots;
  }
  .dote3{
    animation: 2s ease-in-out .6s infinite blinkdots;
  }
  
  @keyframes blinkdots {
  
    0%{
      fill:#4F4C9F;
    }
    50%{
      fill:#9595d4;
    }
    100%{
      fill: #4F4C9F;
    }
  }
</style>


</svg>
