<svg width="108" height="108" viewBox="0 0 108 108" fill="none"
  xmlns="http://www.w3.org/2000/svg">
  <path d="M53.625 60.4688V77.5312L39 86.0625L24.375 77.5312V60.4688L39 51.9375L53.625 60.4688Z" fill="#8581D8"/>
  <path d="M53.625 60.4688V77.5312L39 86.0625V69L53.625 60.4688Z" fill="#4F4C9F"/>
  <path d="M39 69V86.0625L24.375 77.5312V60.4688L39 69Z" fill="#7E7AC2"/>
  <path d="M39 48.2812C38.6768 48.2812 38.3668 48.1528 38.1382 47.9243C37.9097 47.6957 37.7812 47.3857 37.7812 47.0625V40.9688C37.7812 40.6455 37.9097 40.3355 38.1382 40.107C38.3668 39.8784 38.6768 39.75 39 39.75C39.3232 39.75 39.6332 39.8784 39.8618 40.107C40.0903 40.3355 40.2188 40.6455 40.2188 40.9688V47.0625C40.2188 47.3857 40.0903 47.6957 39.8618 47.9243C39.6332 48.1528 39.3232 48.2812 39 48.2812Z" fill="#D0DBF7"/>
  <path d="M39 98.25C38.6768 98.25 38.3668 98.1216 38.1382 97.893C37.9097 97.6645 37.7812 97.3545 37.7812 97.0312V90.9375C37.7812 90.6143 37.9097 90.3043 38.1382 90.0757C38.3668 89.8472 38.6768 89.7188 39 89.7188C39.3232 89.7188 39.6332 89.8472 39.8618 90.0757C40.0903 90.3043 40.2188 90.6143 40.2188 90.9375V97.0312C40.2188 97.3545 40.0903 97.6645 39.8618 97.893C39.6332 98.1216 39.3232 98.25 39 98.25Z" fill="#D0DBF7"/>
  <path d="M67.0312 70.2188H58.5C58.1768 70.2188 57.8668 70.0903 57.6382 69.8618C57.4097 69.6332 57.2812 69.3232 57.2812 69C57.2812 68.6768 57.4097 68.3668 57.6382 68.1382C57.8668 67.9097 58.1768 67.7812 58.5 67.7812H67.0312C67.3545 67.7812 67.6645 67.9097 67.893 68.1382C68.1216 68.3668 68.25 68.6768 68.25 69C68.25 69.3232 68.1216 69.6332 67.893 69.8618C67.6645 70.0903 67.3545 70.2188 67.0312 70.2188Z" fill="#D0DBF7"/>
  <path d="M19.5 70.2188H10.9688C10.6455 70.2188 10.3355 70.0903 10.107 69.8618C9.8784 69.6332 9.75 69.3232 9.75 69C9.75 68.6768 9.8784 68.3668 10.107 68.1382C10.3355 67.9097 10.6455 67.7812 10.9688 67.7812H19.5C19.8232 67.7812 20.1332 67.9097 20.3618 68.1382C20.5903 68.3668 20.7188 68.6768 20.7188 69C20.7188 69.3232 20.5903 69.6332 20.3618 69.8618C20.1332 70.0903 19.8232 70.2188 19.5 70.2188Z" fill="#D0DBF7"/>
  <path d="M53.625 55.5938C53.384 55.5937 53.1484 55.5222 52.948 55.3883C52.7476 55.2544 52.5915 55.064 52.4993 54.8414C52.407 54.6187 52.3829 54.3737 52.4299 54.1373C52.4769 53.9009 52.5929 53.6838 52.7633 53.5134L61.2946 44.9821C61.5244 44.7601 61.8323 44.6373 62.1519 44.64C62.4714 44.6428 62.7771 44.771 63.0031 44.9969C63.229 45.2229 63.3572 45.5286 63.36 45.8481C63.3627 46.1677 63.2399 46.4756 63.0179 46.7054L54.4866 55.2367C54.2581 55.4652 53.9482 55.5937 53.625 55.5938Z" fill="#D0DBF7"/>
  <path d="M24.3749 55.5938C24.0517 55.5937 23.7418 55.4652 23.5133 55.2367L14.982 46.7054C14.76 46.4756 14.6372 46.1677 14.6399 45.8481C14.6427 45.5286 14.7709 45.2229 14.9969 44.9969C15.2228 44.771 15.5285 44.6428 15.8481 44.64C16.1676 44.6373 16.4755 44.7601 16.7053 44.9821L25.2366 53.5134C25.407 53.6838 25.523 53.9009 25.57 54.1373C25.617 54.3737 25.5929 54.6187 25.5006 54.8414C25.4084 55.064 25.2523 55.2544 25.0519 55.3883C24.8515 55.5222 24.6159 55.5937 24.3749 55.5938Z" fill="#D0DBF7"/>
  <path d="M62.1562 93.375C61.833 93.3749 61.523 93.2465 61.2945 93.0179L52.7633 84.4867C52.5413 84.2568 52.4184 83.9489 52.4212 83.6294C52.424 83.3098 52.5521 83.0042 52.7781 82.7782C53.0041 82.5522 53.3097 82.424 53.6293 82.4213C53.9489 82.4185 54.2567 82.5413 54.4866 82.7633L63.0178 91.2946C63.1882 91.465 63.3042 91.6822 63.3513 91.9186C63.3983 92.1549 63.3741 92.3999 63.2819 92.6226C63.1897 92.8453 63.0335 93.0356 62.8331 93.1695C62.6328 93.3034 62.3972 93.3749 62.1562 93.375Z" fill="#D0DBF7"/>
  <path d="M15.8437 93.375C15.6027 93.3749 15.3671 93.3034 15.1668 93.1695C14.9664 93.0356 14.8102 92.8453 14.718 92.6226C14.6258 92.3999 14.6016 92.1549 14.6486 91.9186C14.6957 91.6822 14.8117 91.465 14.9821 91.2946L23.5133 82.7633C23.7432 82.5413 24.051 82.4185 24.3706 82.4213C24.6901 82.424 24.9958 82.5522 25.2218 82.7782C25.4478 83.0042 25.5759 83.3098 25.5787 83.6294C25.5815 83.9489 25.4586 84.2568 25.2366 84.4867L16.7054 93.0179C16.4769 93.2465 16.1669 93.3749 15.8437 93.375V93.375Z" fill="#D0DBF7"/>
  <path d="M43.875 30H34.125C33.4519 30 32.9062 30.5457 32.9062 31.2188V40.9688C32.9062 41.6418 33.4519 42.1875 34.125 42.1875H43.875C44.5481 42.1875 45.0938 41.6418 45.0938 40.9688V31.2188C45.0938 30.5457 44.5481 30 43.875 30Z" fill="#8581D8"/>
  <path d="M43.875 95.8125H34.125C33.4519 95.8125 32.9062 96.3582 32.9062 97.0312V106.781C32.9062 107.454 33.4519 108 34.125 108H43.875C44.5481 108 45.0938 107.454 45.0938 106.781V97.0312C45.0938 96.3582 44.5481 95.8125 43.875 95.8125Z" fill="#8581D8"/>
  <path class="box4" d="M76.7812 30H62.1562C61.4832 30 60.9375 30.5457 60.9375 31.2188V45.8438C60.9375 46.5168 61.4832 47.0625 62.1562 47.0625H76.7812C77.4543 47.0625 78 46.5168 78 45.8438V31.2188C78 30.5457 77.4543 30 76.7812 30Z" fill="#8581D8"/>
  <path d="M76.7812 62.9062H67.0312C66.3582 62.9062 65.8125 63.4519 65.8125 64.125V73.875C65.8125 74.5481 66.3582 75.0938 67.0312 75.0938H76.7812C77.4543 75.0938 78 74.5481 78 73.875V64.125C78 63.4519 77.4543 62.9062 76.7812 62.9062Z" fill="#8581D8"/>
  <path d="M10.9688 62.9062H1.21875C0.545653 62.9062 0 63.4519 0 64.125V73.875C0 74.5481 0.545653 75.0938 1.21875 75.0938H10.9688C11.6418 75.0938 12.1875 74.5481 12.1875 73.875V64.125C12.1875 63.4519 11.6418 62.9062 10.9688 62.9062Z" fill="#8581D8"/>
  <path class="box1" d="M15.8438 30H1.21875C0.545653 30 0 30.5457 0 31.2188V45.8438C0 46.5168 0.545653 47.0625 1.21875 47.0625H15.8438C16.5168 47.0625 17.0625 46.5168 17.0625 45.8438V31.2188C17.0625 30.5457 16.5168 30 15.8438 30Z" fill="#8581D8"/>
  <path class="box3" d="M76.7812 90.9375H62.1562C61.4832 90.9375 60.9375 91.4832 60.9375 92.1562V106.781C60.9375 107.454 61.4832 108 62.1562 108H76.7812C77.4543 108 78 107.454 78 106.781V92.1562C78 91.4832 77.4543 90.9375 76.7812 90.9375Z" fill="#8581D8"/>
  <path class="box2" d="M15.8438 90.9375H1.21875C0.545653 90.9375 0 91.4832 0 92.1562V106.781C0 107.454 0.545653 108 1.21875 108H15.8438C16.5168 108 17.0625 107.454 17.0625 106.781V92.1562C17.0625 91.4832 16.5168 90.9375 15.8438 90.9375Z" fill="#8581D8"/>

  <style>

  .box1 {
    animation: 3s ease-in-out infinite actionbox1;
  }
  
  @keyframes actionbox1 {
    0% {
      transform: translate(0px, 0px);
    }
    50% {
      transform: translate(5px, 5px);
    }
    100% {
      transform: translate(0px, 0px);
    }
  }

  .box2 {
    animation: 3s ease-in-out .5s infinite actionbox2;
  }
  
  @keyframes actionbox2 {
    0% {
      transform: translate(0px, 0px);
    }
    50% {
      transform: translate(5px, -5px);
    }
    100% {
      transform: translate(0px, 0px);
    }
  }

  .box3 {
    animation: 3s ease-in-out 1s infinite actionbox3;
  }
  
  @keyframes actionbox3 {
    0% {
      transform: translate(0px, 0px);
    }
    50% {
      transform: translate(-5px, -5px);
    }
    100% {
      transform: translate(0px, 0px);
    }
  }

  .box4 {
    animation: 3s ease-in-out 1.5s infinite actionbox4;
  }
  
  @keyframes actionbox4 {
    0% {
      transform: translate(0px, 0px);
    }
    50% {
      transform: translate(-5px, 5px);
    }
    100% {
      transform: translate(0px, 0px);
    }
  }

  </style>

</svg>
