<svg width="108" height="108" viewBox="0 0 108 108" fill="none" xmlns="http://www.w3.org/2000/svg">
<g clip-path="url(#clip0_46_2084)">
<path d="M70.6094 39.3281H12.3906C8.19671 39.3281 4.79688 42.728 4.79688 46.9219V100.078C4.79688 104.272 8.19671 107.672 12.3906 107.672H70.6094C74.8033 107.672 78.2031 104.272 78.2031 100.078V46.9219C78.2031 42.728 74.8033 39.3281 70.6094 39.3281Z" fill="#E6ECFF"/>
<path class="searchline" d="M78.2031 73.5H4.79688C2.69992 73.5 1 75.1999 1 77.2969V89.9531C1 92.0501 2.69992 93.75 4.79688 93.75H78.2031C80.3001 93.75 82 92.0501 82 89.9531V77.2969C82 75.1999 80.3001 73.5 78.2031 73.5Z" fill="#4F4C9F"/>
<path class="searchline" d="M4.79688 73.5C3.78988 73.5 2.82413 73.9 2.11208 74.6121C1.40003 75.3241 1 76.2899 1 77.2969L1 89.9531C1 90.9601 1.40003 91.9259 2.11208 92.6379C2.82413 93.35 3.78988 93.75 4.79688 93.75H21.25V73.5H4.79688Z" fill="#8581D8"/>
<path d="M78.2031 46.9219C78.2011 44.9085 77.4004 42.9782 75.9767 41.5545C74.5531 40.1308 72.6227 39.3301 70.6094 39.3281H12.3906C10.3773 39.3301 8.44692 40.1308 7.02325 41.5545C5.59958 42.9782 4.79889 44.9085 4.79688 46.9219V59.5781H31.375C33.5047 59.5755 35.5625 58.8069 37.1725 57.4127C38.7825 56.0186 39.8374 54.0919 40.1445 51.9844H78.2031V46.9219Z" fill="#4F4C9F"/>
<path class="searchline" d="M17.0823 87.7927L14.2043 84.9147C14.6695 84.1432 14.9175 83.2603 14.9219 82.3594C14.9219 81.3581 14.625 80.3793 14.0687 79.5468C13.5124 78.7143 12.7218 78.0654 11.7967 77.6822C10.8717 77.2991 9.85376 77.1988 8.87173 77.3942C7.8897 77.5895 6.98765 78.0716 6.27965 78.7797C5.57165 79.4877 5.08949 80.3897 4.89415 81.3717C4.69881 82.3538 4.79907 83.3717 5.18224 84.2967C5.56541 85.2218 6.21428 86.0124 7.0468 86.5687C7.87933 87.125 8.85811 87.4219 9.85938 87.4219C10.7603 87.4175 11.6432 87.1695 12.4147 86.7043L15.2927 89.5823C15.5314 89.8128 15.8511 89.9404 16.1829 89.9375C16.5148 89.9346 16.8322 89.8015 17.0669 89.5669C17.3015 89.3322 17.4346 89.0148 17.4375 88.6829C17.4404 88.3511 17.3128 88.0314 17.0823 87.7927V87.7927ZM7.32813 82.3594C7.32813 81.8587 7.47658 81.3694 7.75472 80.9531C8.03286 80.5368 8.42818 80.2124 8.89071 80.0208C9.35323 79.8292 9.86219 79.7791 10.3532 79.8768C10.8442 79.9744 11.2952 80.2155 11.6492 80.5695C12.0032 80.9235 12.2443 81.3745 12.342 81.8656C12.4397 82.3566 12.3895 82.8655 12.1979 83.328C12.0064 83.7906 11.6819 84.1859 11.2657 84.464C10.8494 84.7422 10.36 84.8906 9.85938 84.8906C9.18805 84.8906 8.54421 84.6239 8.06951 84.1492C7.59481 83.6745 7.32813 83.0307 7.32813 82.3594V82.3594Z" fill="#4F4C9F"/>
<path d="M13.6562 54.5156C15.7532 54.5156 17.4531 52.8157 17.4531 50.7188C17.4531 48.6218 15.7532 46.9219 13.6562 46.9219C11.5593 46.9219 9.85938 48.6218 9.85938 50.7188C9.85938 52.8157 11.5593 54.5156 13.6562 54.5156Z" fill="#8581D8"/>
<path d="M22.5156 54.5156C24.6126 54.5156 26.3125 52.8157 26.3125 50.7188C26.3125 48.6218 24.6126 46.9219 22.5156 46.9219C20.4187 46.9219 18.7188 48.6218 18.7188 50.7188C18.7188 52.8157 20.4187 54.5156 22.5156 54.5156Z" fill="#8581D8"/>
<path d="M31.375 54.5156C33.472 54.5156 35.1719 52.8157 35.1719 50.7188C35.1719 48.6218 33.472 46.9219 31.375 46.9219C29.278 46.9219 27.5781 48.6218 27.5781 50.7188C27.5781 52.8157 29.278 54.5156 31.375 54.5156Z" fill="#8581D8"/>
<path d="M70.6094 46.9219H49.0938C48.7581 46.9219 48.4362 46.7885 48.1988 46.5512C47.9615 46.3138 47.8281 45.9919 47.8281 45.6562C47.8281 45.3206 47.9615 44.9987 48.1988 44.7613C48.4362 44.524 48.7581 44.3906 49.0938 44.3906H70.6094C70.945 44.3906 71.267 44.524 71.5043 44.7613C71.7417 44.9987 71.875 45.3206 71.875 45.6562C71.875 45.9919 71.7417 46.3138 71.5043 46.5512C71.267 46.7885 70.945 46.9219 70.6094 46.9219Z" fill="#8581D8"/>
<path class="searchline" d="M28.8438 84.8906H26.3125C25.9768 84.8906 25.6549 84.7573 25.4176 84.5199C25.1802 84.2826 25.0469 83.9607 25.0469 83.625C25.0469 83.2893 25.1802 82.9674 25.4176 82.7301C25.6549 82.4927 25.9768 82.3594 26.3125 82.3594H28.8438C29.1794 82.3594 29.5013 82.4927 29.7387 82.7301C29.976 82.9674 30.1094 83.2893 30.1094 83.625C30.1094 83.9607 29.976 84.2826 29.7387 84.5199C29.5013 84.7573 29.1794 84.8906 28.8438 84.8906Z" fill="#8581D8"/>
<path class="searchline" d="M36.4375 84.8906H33.9062C33.5706 84.8906 33.2487 84.7573 33.0113 84.5199C32.774 84.2826 32.6406 83.9607 32.6406 83.625C32.6406 83.2893 32.774 82.9674 33.0113 82.7301C33.2487 82.4927 33.5706 82.3594 33.9062 82.3594H36.4375C36.7732 82.3594 37.0951 82.4927 37.3324 82.7301C37.5698 82.9674 37.7031 83.2893 37.7031 83.625C37.7031 83.9607 37.5698 84.2826 37.3324 84.5199C37.0951 84.7573 36.7732 84.8906 36.4375 84.8906Z" fill="#8581D8"/>
<path class="searchline" d="M44.0312 84.8906H41.5C41.1643 84.8906 40.8424 84.7573 40.6051 84.5199C40.3677 84.2826 40.2344 83.9607 40.2344 83.625C40.2344 83.2893 40.3677 82.9674 40.6051 82.7301C40.8424 82.4927 41.1643 82.3594 41.5 82.3594H44.0312C44.3669 82.3594 44.6888 82.4927 44.9262 82.7301C45.1635 82.9674 45.2969 83.2893 45.2969 83.625C45.2969 83.9607 45.1635 84.2826 44.9262 84.5199C44.6888 84.7573 44.3669 84.8906 44.0312 84.8906Z" fill="#8581D8"/>
<path class="searchline" d="M51.625 84.8906H49.0938C48.7581 84.8906 48.4362 84.7573 48.1988 84.5199C47.9615 84.2826 47.8281 83.9607 47.8281 83.625C47.8281 83.2893 47.9615 82.9674 48.1988 82.7301C48.4362 82.4927 48.7581 82.3594 49.0938 82.3594H51.625C51.9607 82.3594 52.2826 82.4927 52.5199 82.7301C52.7573 82.9674 52.8906 83.2893 52.8906 83.625C52.8906 83.9607 52.7573 84.2826 52.5199 84.5199C52.2826 84.7573 51.9607 84.8906 51.625 84.8906Z" fill="#8581D8"/>
<path class="searchline" d="M59.2188 84.8906H56.6875C56.3518 84.8906 56.0299 84.7573 55.7926 84.5199C55.5552 84.2826 55.4219 83.9607 55.4219 83.625C55.4219 83.2893 55.5552 82.9674 55.7926 82.7301C56.0299 82.4927 56.3518 82.3594 56.6875 82.3594H59.2188C59.5544 82.3594 59.8763 82.4927 60.1137 82.7301C60.351 82.9674 60.4844 83.2893 60.4844 83.625C60.4844 83.9607 60.351 84.2826 60.1137 84.5199C59.8763 84.7573 59.5544 84.8906 59.2188 84.8906Z" fill="#8581D8"/>
</g>
<defs>
<clipPath id="clip0_46_2084">
<rect width="81" height="75" fill="white" transform="translate(1 33)"/>
</clipPath>
</defs>


<style>
  .searchline {
    animation: 3s ease-in-out infinite searchaction;
    transform-origin: center;
  }
  
  @keyframes searchaction {
    0% {
      transform: translate(0);
    }
    50% {
      transform: translateY(10px);
    }
    100% {
      transform: translate(0px);
    }
  }
</style>

</svg>
