<svg width="108" height="108" viewBox="0 0 108 108" fill="none" xmlns="http://www.w3.org/2000/svg">
<path class="arrow" d="M73.5125 80.175L65.3963 72.0587C65.2486 71.911 65.0686 71.7998 64.8704 71.7338C64.6722 71.6679 64.4614 71.649 64.2547 71.6787C64.0479 71.7085 63.851 71.786 63.6795 71.9051C63.5079 72.0243 63.3665 72.1818 63.2665 72.3651C61.9514 74.7749 60.3324 77.0058 58.4491 79.0032C57.984 79.518 57.4919 80.0078 56.975 80.4706C54.9836 82.3449 52.7604 83.9567 50.3597 85.2665C50.1764 85.3665 50.0189 85.5079 49.8998 85.6794C49.7806 85.851 49.7031 86.0479 49.6734 86.2547C49.6436 86.4614 49.6625 86.6722 49.7284 86.8704C49.7944 87.0686 49.9057 87.2486 50.0534 87.3963L58.1696 95.5125C58.4216 95.7645 58.7633 95.906 59.1196 95.906C59.476 95.906 59.8177 95.7645 60.0697 95.5125L73.5072 82.075C73.7598 81.8238 73.9023 81.4824 73.9033 81.1261C73.9043 80.7698 73.7638 80.4277 73.5125 80.175V80.175Z" fill="#D0DBF7"/>
<path d="M34.9375 91.875C54.2329 91.875 69.875 76.2329 69.875 56.9375C69.875 37.6421 54.2329 22 34.9375 22C15.6421 22 0 37.6421 0 56.9375C0 76.2329 15.6421 91.875 34.9375 91.875Z" fill="#E6ECFF"/>
<path d="M34.9375 86.5C51.2644 86.5 64.5 73.2644 64.5 56.9375C64.5 40.6106 51.2644 27.375 34.9375 27.375C18.6106 27.375 5.375 40.6106 5.375 56.9375C5.375 73.2644 18.6106 86.5 34.9375 86.5Z" fill="#D0DBF7"/>
<path class="arrow" d="M85.6062 84.2062L77.5437 76.1437C77.2917 75.8918 76.95 75.7503 76.5937 75.7503C76.2374 75.7503 75.8957 75.8918 75.6437 76.1437L54.1437 97.6437C53.8918 97.8957 53.7502 98.2374 53.7502 98.5937C53.7502 98.9501 53.8918 99.2918 54.1437 99.5438L62.2062 107.606C62.4581 107.858 62.7999 108 63.1562 108H84.6562C85.0126 108 85.3544 107.858 85.6064 107.606C85.8584 107.354 86 107.013 86 106.656V85.1562C85.9999 84.7999 85.8583 84.4581 85.6062 84.2062V84.2062Z" fill="#E6ECFF"/>
<path d="M47.0312 59.625H22.8438C22.1016 59.625 21.5 60.2266 21.5 60.9688V66.3438C21.5 67.0859 22.1016 67.6875 22.8438 67.6875H47.0312C47.7734 67.6875 48.375 67.0859 48.375 66.3438V60.9688C48.375 60.2266 47.7734 59.625 47.0312 59.625Z" fill="#4F4C9F"/>
<path d="M47.0312 46.1875H22.8438C22.1016 46.1875 21.5 46.7891 21.5 47.5312V52.9062C21.5 53.6484 22.1016 54.25 22.8438 54.25H47.0312C47.7734 54.25 48.375 53.6484 48.375 52.9062V47.5312C48.375 46.7891 47.7734 46.1875 47.0312 46.1875Z" fill="#4F4C9F"/>
<path d="M49.7188 65H20.1562C18.672 65 17.4688 66.2032 17.4688 67.6875V73.0625C17.4688 74.5468 18.672 75.75 20.1562 75.75H49.7188C51.203 75.75 52.4062 74.5468 52.4062 73.0625V67.6875C52.4062 66.2032 51.203 65 49.7188 65Z" fill="#8581D8"/>
<path d="M49.7188 51.5625H20.1562C18.672 51.5625 17.4688 52.7657 17.4688 54.25V59.625C17.4688 61.1093 18.672 62.3125 20.1562 62.3125H49.7188C51.203 62.3125 52.4062 61.1093 52.4062 59.625V54.25C52.4062 52.7657 51.203 51.5625 49.7188 51.5625Z" fill="#8581D8"/>
<path d="M49.7188 38.125H20.1562C18.672 38.125 17.4688 39.3282 17.4688 40.8125V46.1875C17.4688 47.6718 18.672 48.875 20.1562 48.875H49.7188C51.203 48.875 52.4062 47.6718 52.4062 46.1875V40.8125C52.4062 39.3282 51.203 38.125 49.7188 38.125Z" fill="#8581D8"/>
<path d="M26.875 71.7188C27.6171 71.7188 28.2188 71.1171 28.2188 70.375C28.2188 69.6329 27.6171 69.0312 26.875 69.0312C26.1329 69.0312 25.5312 69.6329 25.5312 70.375C25.5312 71.1171 26.1329 71.7188 26.875 71.7188Z" fill="#4F4C9F"/>
<path d="M22.8438 71.7188C23.5859 71.7188 24.1875 71.1171 24.1875 70.375C24.1875 69.6329 23.5859 69.0312 22.8438 69.0312C22.1016 69.0312 21.5 69.6329 21.5 70.375C21.5 71.1171 22.1016 71.7188 22.8438 71.7188Z" fill="#4F4C9F"/>
<path d="M30.9062 71.7188C31.6484 71.7188 32.25 71.1171 32.25 70.375C32.25 69.6329 31.6484 69.0312 30.9062 69.0312C30.1641 69.0312 29.5625 69.6329 29.5625 70.375C29.5625 71.1171 30.1641 71.7188 30.9062 71.7188Z" fill="#4F4C9F"/>
<path d="M47.0312 71.7188H37.625C37.2686 71.7188 36.9268 71.5772 36.6748 71.3252C36.4228 71.0732 36.2812 70.7314 36.2812 70.375C36.2812 70.0186 36.4228 69.6768 36.6748 69.4248C36.9268 69.1728 37.2686 69.0312 37.625 69.0312H47.0312C47.3876 69.0312 47.7294 69.1728 47.9814 69.4248C48.2334 69.6768 48.375 70.0186 48.375 70.375C48.375 70.7314 48.2334 71.0732 47.9814 71.3252C47.7294 71.5772 47.3876 71.7188 47.0312 71.7188Z" fill="#4F4C9F"/>
<path d="M26.875 58.2812C27.6171 58.2812 28.2188 57.6796 28.2188 56.9375C28.2188 56.1954 27.6171 55.5938 26.875 55.5938C26.1329 55.5938 25.5312 56.1954 25.5312 56.9375C25.5312 57.6796 26.1329 58.2812 26.875 58.2812Z" fill="#4F4C9F"/>
<path d="M22.8438 58.2812C23.5859 58.2812 24.1875 57.6796 24.1875 56.9375C24.1875 56.1954 23.5859 55.5938 22.8438 55.5938C22.1016 55.5938 21.5 56.1954 21.5 56.9375C21.5 57.6796 22.1016 58.2812 22.8438 58.2812Z" fill="#4F4C9F"/>
<path d="M30.9062 58.2812C31.6484 58.2812 32.25 57.6796 32.25 56.9375C32.25 56.1954 31.6484 55.5938 30.9062 55.5938C30.1641 55.5938 29.5625 56.1954 29.5625 56.9375C29.5625 57.6796 30.1641 58.2812 30.9062 58.2812Z" fill="#4F4C9F"/>
<path d="M47.0312 58.2812H37.625C37.2686 58.2812 36.9268 58.1397 36.6748 57.8877C36.4228 57.6357 36.2812 57.2939 36.2812 56.9375C36.2812 56.5811 36.4228 56.2393 36.6748 55.9873C36.9268 55.7353 37.2686 55.5938 37.625 55.5938H47.0312C47.3876 55.5938 47.7294 55.7353 47.9814 55.9873C48.2334 56.2393 48.375 56.5811 48.375 56.9375C48.375 57.2939 48.2334 57.6357 47.9814 57.8877C47.7294 58.1397 47.3876 58.2812 47.0312 58.2812Z" fill="#4F4C9F"/>
<path d="M26.875 44.8438C27.6171 44.8438 28.2188 44.2421 28.2188 43.5C28.2188 42.7579 27.6171 42.1562 26.875 42.1562C26.1329 42.1562 25.5312 42.7579 25.5312 43.5C25.5312 44.2421 26.1329 44.8438 26.875 44.8438Z" fill="#4F4C9F"/>
<path d="M22.8438 44.8438C23.5859 44.8438 24.1875 44.2421 24.1875 43.5C24.1875 42.7579 23.5859 42.1562 22.8438 42.1562C22.1016 42.1562 21.5 42.7579 21.5 43.5C21.5 44.2421 22.1016 44.8438 22.8438 44.8438Z" fill="#4F4C9F"/>
<path d="M30.9062 44.8438C31.6484 44.8438 32.25 44.2421 32.25 43.5C32.25 42.7579 31.6484 42.1562 30.9062 42.1562C30.1641 42.1562 29.5625 42.7579 29.5625 43.5C29.5625 44.2421 30.1641 44.8438 30.9062 44.8438Z" fill="#4F4C9F"/>
<path d="M47.0312 44.8438H37.625C37.2686 44.8438 36.9268 44.7022 36.6748 44.4502C36.4228 44.1982 36.2812 43.8564 36.2812 43.5C36.2812 43.1436 36.4228 42.8018 36.6748 42.5498C36.9268 42.2978 37.2686 42.1562 37.625 42.1562H47.0312C47.3876 42.1562 47.7294 42.2978 47.9814 42.5498C48.2334 42.8018 48.375 43.1436 48.375 43.5C48.375 43.8564 48.2334 44.1982 47.9814 44.4502C47.7294 44.7022 47.3876 44.8438 47.0312 44.8438Z" fill="#4F4C9F"/>

<style>
  .arrow{
    animation: 3s ease-in-out infinite rotating;
  }
  
  @keyframes rotating {
  
    0%{
      transform: rotate(0deg);
    }
    50%{
      transform: rotate(-17deg) translate(-15px, 5px);
    }
    100%{
      transform: rotate(0deg);
    }

  }


</style>

</svg>
