<svg width="218" height="431" viewBox="0 0 218 431" fill="none" xmlns="http://www.w3.org/2000/svg">
<g opacity="0.03" clip-path="url(#clip0_46_2223)">
<path d="M165.77 431L165.77 265.298L216.911 265.298L216.911 431L165.77 431Z" fill="url(#paint0_linear_46_2223)"/>
<path d="M165.77 431L0 431L-2.23455e-06 379.879L165.77 379.879L165.77 431Z" fill="url(#paint1_linear_46_2223)"/>
<path d="M216.911 334.928L216.911 392.219L98.5958 312.012L-5.00851e-07 380.761L-3.10526e-06 321.179L61.6224 282.221L-6.61119e-06 240.972L-9.01529e-06 185.973L216.911 334.928Z" fill="url(#paint2_linear_46_2223)"/>
<path d="M-2.00339e-06 13.2205L0 59.0528L216.911 59.0528L216.911 13.2205L-2.00339e-06 13.2205Z" fill="url(#paint3_linear_46_2223)"/>
<path d="M181.261 26.7856C180.768 26.5388 180.107 26.2833 179.278 26.0181C178.448 25.7722 177.629 25.6488 176.817 25.6488C175.53 25.6488 174.551 25.886 173.881 26.3623C173.212 26.8387 172.876 27.4644 172.876 28.2396C172.876 30.0205 174.428 31.3338 177.532 32.1794C180.618 33.0433 182.161 34.8329 182.161 37.5471C182.161 38.8517 181.641 39.9538 180.6 40.8524C179.542 41.751 178.096 42.2013 176.262 42.2013C175.363 42.2013 174.498 42.0779 173.67 41.8311C172.823 41.5843 172.1 41.3104 171.5 41.0105C171.624 40.676 171.766 40.3414 171.924 40.0058C172.083 39.6713 172.224 39.3367 172.347 39.0011C172.805 39.2306 173.335 39.4418 173.934 39.6356C174.517 39.8477 175.231 39.9538 176.077 39.9538C177.083 39.9538 177.928 39.759 178.616 39.3714C179.287 38.9838 179.621 38.3937 179.621 37.6002C179.621 35.7846 178.069 34.4356 174.966 33.5543C171.862 32.673 170.31 30.9192 170.31 28.2927C170.31 26.882 170.874 25.7192 172.003 24.8022C173.114 23.9036 174.711 23.4533 176.791 23.4533C177.549 23.4533 178.493 23.5951 179.621 23.8766C180.75 24.1591 181.491 24.458 181.844 24.7762C181.755 25.1108 181.667 25.4454 181.58 25.7809C181.473 26.1155 181.367 26.4501 181.261 26.7856Z" fill="white"/>
<path d="M164.967 32.7087C164.967 35.4056 164.279 37.6445 162.904 39.4244C161.511 41.2227 159.509 42.1483 156.899 42.2013C154.112 42.2013 152.076 41.2757 150.788 39.4244C149.501 37.5915 148.857 35.4143 148.857 32.8939C148.857 30.2664 149.554 28.0372 150.948 26.2032C152.34 24.3876 154.351 23.463 156.978 23.4273C159.747 23.4273 161.775 24.3442 163.062 26.1772C164.332 28.0102 164.967 30.1873 164.967 32.7087ZM162.322 32.7348C162.322 30.7254 161.899 29.0332 161.052 27.6582C160.188 26.2833 158.839 25.5958 157.005 25.5958C155.33 25.5958 154.007 26.2389 153.037 27.5261C152.049 28.8124 151.555 30.6019 151.555 32.8939C151.555 34.8849 151.979 36.5684 152.826 37.9434C153.672 39.3184 155.012 40.0058 156.846 40.0058C158.486 40.0058 159.808 39.328 160.814 37.9704C161.82 36.6302 162.322 34.885 162.322 32.7348Z" fill="white"/>
<path d="M134.645 31.8622L139.751 31.8622L139.751 23.7976L142.289 23.7976L142.289 41.7781L132.582 41.7781L132.211 39.8207L139.751 39.8207L139.751 33.7925L134.962 33.7925L134.645 31.8622Z" fill="white"/>
<path d="M115.117 39.7687L121.043 39.7687L121.043 23.7976L123.609 23.7976L123.609 39.7687L129.19 39.7687L129.19 41.7781L115.461 41.7781C115.409 41.4425 115.356 41.1079 115.303 40.7733C115.25 40.4378 115.188 40.1032 115.117 39.7687Z" fill="white"/>
<path d="M110.571 26.9707C110.131 26.9707 109.76 26.8116 109.46 26.4944C109.161 26.1946 109.011 25.8243 109.011 25.3837C109.011 24.943 109.161 24.5641 109.46 24.2469C109.76 23.947 110.131 23.7976 110.571 23.7976C111.03 23.7976 111.418 23.947 111.736 24.2469C112.036 24.5641 112.185 24.943 112.185 25.3837C112.185 25.8243 112.036 26.1946 111.736 26.4944C111.418 26.8116 111.03 26.9707 110.571 26.9707Z" fill="white"/>
<path d="M91.9631 39.7687L97.8887 39.7687L97.8887 23.7976L100.455 23.7976L100.455 39.7687L106.036 39.7687L106.036 41.7781L92.307 41.7781C92.2541 41.4425 92.2012 41.1079 92.1482 40.7733C92.0954 40.4378 92.0336 40.1032 91.9631 39.7687Z" fill="white"/>
<path d="M86.8882 23.7976L86.8882 41.7781L76.7568 41.7781C76.6863 41.4425 76.6335 41.1166 76.5982 40.7994C76.5453 40.4822 76.4836 40.1563 76.413 39.8207L84.3487 39.8207L84.3487 33.9246L79.2963 33.9246C79.2434 33.59 79.1905 33.2545 79.1376 32.9199C79.0847 32.6027 79.023 32.2855 78.9525 31.9682L84.3487 31.9682L84.3487 25.781L75.8046 25.781L75.4607 23.7976L86.8882 23.7976Z" fill="white"/>
<path d="M58.8813 39.2393C59.5338 39.4688 60.1245 39.6453 60.6536 39.7687C61.1651 39.9094 61.8528 39.9798 62.7169 39.9798C64.3569 39.9798 65.6532 39.3097 66.6054 37.9704C67.5578 36.6302 68.0339 34.8763 68.0339 32.7088C68.0339 30.7697 67.6283 29.0949 66.817 27.6843C66.0058 26.292 64.7097 25.5958 62.9285 25.5958C62.0645 25.5958 61.315 25.6662 60.6801 25.807C60.0452 25.9661 59.4809 26.1599 58.9871 26.3884L58.0083 24.4851C58.6079 24.1852 59.375 23.9383 60.3097 23.7445C61.2268 23.5334 62.0645 23.4273 62.8227 23.4273C65.5914 23.4273 67.593 24.3356 68.8275 26.1512C70.0619 27.9842 70.6791 30.1613 70.6791 32.6817C70.6791 35.3786 70.0001 37.6262 68.6423 39.4245C67.2844 41.2401 65.2916 42.1483 62.6641 42.1483C62.135 42.1483 61.4031 42.0596 60.4684 41.8832C59.5338 41.725 58.7402 41.4522 58.0877 41.0636L58.8813 39.2393Z" fill="white"/>
<path d="M41.2453 23.7976L41.2453 31.8091L49.2341 31.8091L49.2341 23.7976L51.7735 23.7976L51.7735 41.7781L49.2341 41.9102L49.2341 33.8455L41.2453 33.8455L41.2453 41.7781L38.7059 41.7781L38.7059 23.7976L41.2453 23.7976Z" fill="white"/>
<path d="M0 221.229L216.911 221.229L217.793 175.397L67.0132 175.397L129.617 136.615L87.2935 111.055L-2.38867e-06 166.583L0 221.229Z" fill="url(#paint4_linear_46_2223)"/>
<path d="M169.296 111.055L129.617 136.615L-3.39037e-06 59.0528L74.0672 59.0528L169.296 111.055Z" fill="url(#paint5_linear_46_2223)"/>
<path d="M217.793 225.636L138.435 281.163L100.52 255.603L217.793 175.806L217.793 225.636Z" fill="url(#paint6_linear_46_2223)"/>
</g>
<defs>
<linearGradient id="paint0_linear_46_2223" x1="191.555" y1="244.469" x2="184.894" y2="430.769" gradientUnits="userSpaceOnUse">
<stop offset="0.026129" stop-color="#2D2B6C" stop-opacity="0"/>
<stop offset="0.696812" stop-color="#2D2B6C"/>
</linearGradient>
<linearGradient id="paint1_linear_46_2223" x1="-24.3862" y1="405.564" x2="165.546" y2="412.017" gradientUnits="userSpaceOnUse">
<stop offset="0.026129" stop-color="#2D2B6C" stop-opacity="0"/>
<stop offset="0.802957" stop-color="#2D2B6C"/>
</linearGradient>
<linearGradient id="paint2_linear_46_2223" x1="-27.5671" y1="281.916" x2="216.887" y2="289.858" gradientUnits="userSpaceOnUse">
<stop offset="0.026129" stop-color="#2D2B6C" stop-opacity="0"/>
<stop offset="0.80958" stop-color="#2D2B6C"/>
</linearGradient>
<linearGradient id="paint3_linear_46_2223" x1="-22.6191" y1="36.0343" x2="216.239" y2="48.7558" gradientUnits="userSpaceOnUse">
<stop offset="0.026129" stop-color="#2D2B6C" stop-opacity="0"/>
<stop offset="0.46875" stop-color="#2D2B6C"/>
</linearGradient>
<linearGradient id="paint4_linear_46_2223" x1="-28.6274" y1="166.041" x2="217.711" y2="170.594" gradientUnits="userSpaceOnUse">
<stop offset="0.026129" stop-color="#2D2B6C" stop-opacity="0"/>
<stop offset="0.64834" stop-color="#2D2B6C"/>
</linearGradient>
<linearGradient id="paint5_linear_46_2223" x1="-18.7315" y1="68.5358" x2="169.29" y2="69.5567" gradientUnits="userSpaceOnUse">
<stop stop-color="#2D2B6C" stop-opacity="0"/>
<stop offset="0.77031" stop-color="#2D2B6C"/>
</linearGradient>
<linearGradient id="paint6_linear_46_2223" x1="74.5723" y1="228.218" x2="217.789" y2="229.102" gradientUnits="userSpaceOnUse">
<stop offset="0.026129" stop-color="#2D2B6C" stop-opacity="0"/>
<stop offset="0.804008" stop-color="#2D2B6C"/>
</linearGradient>
<clipPath id="clip0_46_2223">
<rect width="431" height="218" fill="white" transform="translate(0 431) rotate(-90)"/>
</clipPath>
</defs>
</svg>
