<svg width="108" height="108" viewBox="0 0 108 108" fill="none" xmlns="http://www.w3.org/2000/svg">
<g clip-path="url(#clip0_46_2204)">
<path class="cloud" d="M65.9713 51.2112C66.2028 50.0167 66.3208 48.803 66.3238 47.5862C66.3502 43.0361 64.7825 38.6203 61.8928 35.1055C59.0031 31.5906 54.9739 29.1985 50.5046 28.3445C46.0352 27.4904 41.4079 28.2283 37.4258 30.43C33.4438 32.6317 30.3583 36.1582 28.7051 40.3975C27.2284 39.7805 25.6443 39.4614 24.0438 39.4587C20.7221 39.47 17.5372 40.7834 15.173 43.1167C12.8088 45.4501 11.4538 48.6174 11.3988 51.9387C7.58232 53.3243 4.37475 56.0081 2.33759 59.5202C0.300438 63.0324 -0.43649 67.1492 0.255812 71.15C0.948113 75.1508 3.02553 78.7806 6.12441 81.4041C9.22328 84.0275 13.1462 85.4774 17.2063 85.5H62.7938C67.0904 85.4781 71.2252 83.8581 74.3931 80.9553C77.561 78.0526 79.5353 74.0749 79.9318 69.7965C80.3283 65.5182 79.1185 61.2454 76.5379 57.8099C73.9574 54.3745 70.1908 52.0223 65.9713 51.2112V51.2112Z" fill="#E6ECFF"/>

<g class="shield">
  <path d="M56.9051 74.435L40.6551 64.435C40.4581 64.3138 40.2314 64.2497 40.0001 64.2497C39.7688 64.2497 39.5421 64.3138 39.3451 64.435L23.0951 74.435C22.9132 74.5469 22.763 74.7036 22.6588 74.89C22.5547 75.0764 22.5 75.2864 22.5001 75.5V86.2688C22.4532 91.059 23.9693 95.7339 26.8184 99.585C29.6675 103.436 33.6944 106.253 38.2888 107.61C38.7576 107.735 39.2376 107.86 39.7288 107.97C39.9074 108.01 40.0927 108.01 40.2713 107.97C40.7626 107.861 41.2426 107.74 41.7101 107.61C46.3048 106.254 50.3321 103.437 53.1815 99.5855C56.0309 95.7343 57.547 91.0592 57.5001 86.2688V75.5C57.5001 75.2864 57.4455 75.0764 57.3413 74.89C57.2372 74.7036 57.087 74.5469 56.9051 74.435Z" fill="#8581D8"/>
  <path d="M51.905 77.23L40.655 70.3063C40.458 70.1851 40.2313 70.1209 40 70.1209C39.7687 70.1209 39.542 70.1851 39.345 70.3063L28.095 77.23C27.9133 77.3418 27.7632 77.4982 27.6591 77.6844C27.5549 77.8706 27.5002 78.0804 27.5 78.2938V86.2688C27.4512 89.9683 28.6096 93.5829 30.7995 96.565C32.9895 99.5472 36.0917 101.734 39.6363 102.795L39.6775 102.806C39.7792 102.832 39.8838 102.845 39.9888 102.844C40.1154 102.844 40.2415 102.827 40.3638 102.794C43.9084 101.734 47.0109 99.5468 49.2009 96.5649C51.3909 93.5829 52.5491 89.9682 52.5 86.2688V78.2938C52.4999 78.0804 52.4451 77.8706 52.3409 77.6844C52.2368 77.4982 52.0867 77.3418 51.905 77.23V77.23Z" fill="#7E7AC2"/>
  <path d="M40.365 102.794C43.9094 101.733 47.0116 99.5465 49.2014 96.5646C51.3911 93.5826 52.5492 89.9681 52.5 86.2688V78.2938C52.4998 78.0804 52.4451 77.8706 52.3409 77.6844C52.2368 77.4982 52.0867 77.3418 51.905 77.23L40.655 70.3063C40.4576 70.1865 40.2309 70.1238 40 70.125V102.843C40.1232 102.842 40.2459 102.825 40.365 102.794V102.794Z" fill="#4F4C9F"/>
</g>

</g>
<defs>
<clipPath id="clip0_46_2204">
<rect width="80" height="80" fill="white" transform="translate(0 28)"/>
</clipPath>
</defs>

<style>

  .shield {
    animation: 4s ease-in-out infinite shieldaction;
  }
  
  @keyframes shieldaction {
    0% {
      transform: translate(0, -8px);
    }
    50% {
      transform: translate(-8px, 0px);
    }
    100% {
      transform: translate(0, -8px);
    }
  }

  .cloud {
    animation: 4s ease-in-out infinite cloudaction;
  }
  
  @keyframes cloudaction {
    0% {
      transform: translate(0, 3px);
    }
    50% {
      transform: translate(0px, 0px);
    }
    100% {
      transform: translate(0, 3px);
    }
  }

</style>


</svg>
