<svg width="108" height="108" viewBox="0 0 108 108" fill="none" xmlns="http://www.w3.org/2000/svg">
<path d="M22.609 74.7516C22.512 74.5838 22.3782 74.4402 22.2178 74.3317C22.0573 74.2231 21.8742 74.1523 21.6825 74.1247C21.4907 74.0971 21.2951 74.1133 21.1105 74.1722C20.9259 74.231 20.757 74.331 20.6166 74.4646L10.2501 84.3302C10.0871 84.4857 9.96798 84.6814 9.90476 84.8976C9.84155 85.1138 9.83645 85.3429 9.88998 85.5617C9.94351 85.7805 10.0538 85.9813 10.2097 86.1439C10.3656 86.3065 10.5616 86.4251 10.7779 86.4878C11.8567 86.8013 12.8333 87.3947 13.6086 88.2077C14.3838 89.0208 14.9301 90.0245 15.1918 91.117C15.2444 91.3361 15.3538 91.5374 15.509 91.7007C15.6642 91.864 15.8598 91.9835 16.0759 92.0472C16.1935 92.0823 16.3157 92.1 16.4385 92.0997C16.7677 92.0998 17.0842 91.9731 17.3226 91.7461L27.6751 81.8804C27.8152 81.7469 27.9232 81.5834 27.991 81.4021C28.0589 81.2208 28.0848 81.0265 28.0668 80.8338C28.0488 80.6411 27.9873 80.455 27.8871 80.2894C27.7869 80.1238 27.6504 79.9831 27.488 79.8778C25.4802 78.5777 23.8084 76.8211 22.609 74.7516V74.7516Z" fill="#D0DBF7"/>
<path d="M50.225 76.1046C50.1035 75.9516 49.9469 75.8303 49.7684 75.7509C49.59 75.6715 49.395 75.6363 49.2 75.6484C49.0067 75.6546 48.8173 75.7046 48.646 75.7944C48.4746 75.8843 48.3259 76.0118 48.2109 76.1673C46.7809 78.0937 44.9224 79.6609 42.7823 80.7452C42.6098 80.8323 42.4592 80.9573 42.3418 81.1108C42.2244 81.2643 42.1433 81.4423 42.1045 81.6316C42.0657 81.8209 42.0702 82.0165 42.1176 82.2039C42.1651 82.3912 42.2544 82.5653 42.3787 82.7132L54.5813 97.2298C54.7015 97.3727 54.8516 97.4875 55.0209 97.5663C55.1902 97.6451 55.3747 97.6859 55.5614 97.6859C55.6366 97.6859 55.7116 97.6795 55.7857 97.6667C56.0075 97.6274 56.215 97.5303 56.3873 97.3852C56.5596 97.2401 56.6906 97.0522 56.7671 96.8403C57.1504 95.7827 57.8059 94.8449 58.6675 94.1217C59.5291 93.3984 60.5663 92.9153 61.6743 92.7211C61.8964 92.6827 62.1044 92.5864 62.2774 92.4419C62.4504 92.2974 62.5822 92.1099 62.6595 91.8981C62.7368 91.6864 62.7569 91.4581 62.7178 91.2361C62.6787 91.0141 62.5817 90.8064 62.4366 90.6339L50.225 76.1046Z" fill="#D0DBF7"/>
<path d="M17.2969 41.1738C17.1375 41.0142 16.9387 40.8995 16.7206 40.8414C16.5026 40.7832 16.2731 40.7837 16.0553 40.8427C15.8375 40.9018 15.6392 41.0173 15.4804 41.1775C15.3215 41.3378 15.2079 41.5372 15.1508 41.7555C14.8674 42.8418 14.2995 43.8329 13.5057 44.6268C12.7118 45.4206 11.7207 45.9885 10.6344 46.2719C10.4151 46.3281 10.2145 46.4414 10.0531 46.6003C9.89178 46.7592 9.77543 46.958 9.71593 47.1765C9.65642 47.395 9.65588 47.6253 9.71438 47.8441C9.77287 48.0629 9.88829 48.2622 10.0489 48.4219L20.7986 59.1716C21.0388 59.4119 21.3647 59.5469 21.7044 59.547C21.755 59.5471 21.8055 59.5441 21.8556 59.538C22.0477 59.5151 22.232 59.449 22.3949 59.3447C22.5578 59.2405 22.6949 59.1006 22.7961 58.9358C24.049 56.8949 25.7642 55.1771 27.8032 53.921C27.9681 53.8197 28.108 53.6824 28.2122 53.5193C28.3164 53.3562 28.3824 53.1716 28.4051 52.9794C28.4278 52.7872 28.4066 52.5923 28.3432 52.4094C28.2798 52.2266 28.1758 52.0604 28.0389 51.9235L17.2969 41.1738Z" fill="#D0DBF7"/>
<path d="M45.92 55.0075C46.0281 55.0079 46.1358 54.9941 46.2403 54.9665C46.4278 54.9181 46.6018 54.8278 46.7494 54.7024C46.897 54.577 47.0142 54.4198 47.0923 54.2426L51.9867 43.1214C52.0788 42.9122 52.1133 42.6822 52.0866 42.4552C52.0599 42.2282 51.973 42.0125 51.8348 41.8304C51.6967 41.6483 51.5123 41.5065 51.3009 41.4197C51.0894 41.3328 50.8586 41.3041 50.6324 41.3366C50.4123 41.3649 50.1906 41.3778 49.9687 41.375C48.9619 41.3724 47.9698 41.1333 47.0723 40.6771C46.1748 40.2209 45.3969 39.5603 44.8014 38.7484C44.6685 38.567 44.4902 38.4237 44.2843 38.333C44.0784 38.2423 43.8523 38.2074 43.6287 38.2318C43.4051 38.2563 43.1919 38.3391 43.0104 38.4721C42.829 38.605 42.6857 38.7834 42.5951 38.9893L37.7136 50.0978C37.636 50.2745 37.5993 50.4664 37.6063 50.6593C37.6133 50.8521 37.6638 51.0409 37.7539 51.2115C37.8441 51.3821 37.9717 51.5302 38.1271 51.6446C38.2825 51.759 38.4617 51.8369 38.6514 51.8723C41.0118 52.3049 43.2364 53.2897 45.1435 54.7461C45.3668 54.9159 45.6395 55.0077 45.92 55.0075V55.0075Z" fill="#D0DBF7"/>
<path d="M67.9755 65.7956C67.092 64.6807 66.6156 63.2975 66.625 61.875C66.6262 61.0458 66.7867 60.2246 67.0978 59.456C67.1814 59.2474 67.2087 59.0204 67.1768 58.7979C67.145 58.5754 67.0551 58.3652 66.9164 58.1884C66.7776 58.0116 66.5947 57.8744 66.3862 57.7906C66.1776 57.7068 65.9507 57.6793 65.7281 57.7109L51.2282 59.7084C51.0363 59.7348 50.8528 59.8044 50.6916 59.912C50.5305 60.0195 50.3958 60.1622 50.2977 60.3293C50.1997 60.4965 50.1408 60.6836 50.1256 60.8768C50.1103 61.0699 50.1391 61.2641 50.2096 61.4445C50.901 63.2149 51.2539 65.0994 51.25 67C51.25 67.4958 51.227 67.9802 51.1795 68.4645C51.1616 68.6426 51.1813 68.8226 51.2372 68.9927C51.2931 69.1628 51.3841 69.3193 51.5042 69.4521C51.6243 69.5849 51.7709 69.691 51.9346 69.7637C52.0983 69.8363 52.2753 69.8738 52.4544 69.8738C52.5131 69.8738 52.5717 69.8699 52.6299 69.8623L67.1452 67.8636C67.369 67.8328 67.5806 67.7434 67.7587 67.6044C67.9367 67.4655 68.0749 67.282 68.1592 67.0724C68.2435 66.8629 68.2709 66.6348 68.2386 66.4112C68.2064 66.1877 68.1156 65.9766 67.9755 65.7995V65.7956Z" fill="#D0DBF7"/>
<path class="dote" style="animation-delay: 1s;" d="M49.9688 43.9375C54.9221 43.9375 58.9375 39.9221 58.9375 34.9688C58.9375 30.0154 54.9221 26 49.9688 26C45.0154 26 41 30.0154 41 34.9688C41 39.9221 45.0154 43.9375 49.9688 43.9375Z" fill="#4F4C9F"/>
<path class="dote" style="animation-delay: 1.5s;" d="M73.0312 70.8438C77.9846 70.8438 82 66.8283 82 61.875C82 56.9217 77.9846 52.9062 73.0312 52.9062C68.0779 52.9062 64.0625 56.9217 64.0625 61.875C64.0625 66.8283 68.0779 70.8438 73.0312 70.8438Z" fill="#8581D8"/>
<path class="dote" style="animation-delay: 2s;" d="M62.7812 108C67.7346 108 71.75 103.985 71.75 99.0312C71.75 94.0779 67.7346 90.0625 62.7812 90.0625C57.8279 90.0625 53.8125 94.0779 53.8125 99.0312C53.8125 103.985 57.8279 108 62.7812 108Z" fill="#4F4C9F"/>
<path class="dote" d="M8.96875 101.594C13.9221 101.594 17.9375 97.5783 17.9375 92.625C17.9375 87.6717 13.9221 83.6562 8.96875 83.6562C4.01545 83.6562 0 87.6717 0 92.625C0 97.5783 4.01545 101.594 8.96875 101.594Z" fill="#4F4C9F"/>
<path class="dote" style="animation-delay: .5s;" d="M8.96875 49.0625C13.9221 49.0625 17.9375 45.0471 17.9375 40.0938C17.9375 35.1404 13.9221 31.125 8.96875 31.125C4.01545 31.125 0 35.1404 0 40.0938C0 45.0471 4.01545 49.0625 8.96875 49.0625Z" fill="#8581D8"/>
<path class="bigdote" d="M35.875 84.9375C45.7816 84.9375 53.8125 76.9066 53.8125 67C53.8125 57.0934 45.7816 49.0625 35.875 49.0625C25.9684 49.0625 17.9375 57.0934 17.9375 67C17.9375 76.9066 25.9684 84.9375 35.875 84.9375Z" fill="#8581D8"/>


<style>
  .dote {
    animation: 3s ease-in-out infinite doteblink;
  }
  
  @keyframes doteblink {
    0% {
      opacity: 1;
    }
    30% {
      opacity: .4;
    }
    90% {
      opacity: 1;
    }
    100% {
      opacity: 1;
    }
  }

  .bigdote {
  animation: 4s ease-in-out infinite bigdoteaction;
  transform-origin: center;
}

@keyframes bigdoteaction {
  0% {
    transform: scale(1);
  }
  50% {
    transform: scale(.9) translateY(2px);
  }
  100% {
    transform: scale(1);
  }
}
</style>



</svg>
